<?xml version="1.0" encoding="utf-8"?>
<!-- Generator: Adobe Illustrator 26.0.2, SVG Export Plug-In . SVG Version: 6.00 Build 0)  -->
<svg version="1.1" id="Layer_1" xmlns="http://www.w3.org/2000/svg" xmlns:xlink="http://www.w3.org/1999/xlink" x="0px" y="0px"
	 viewBox="0 0 100 100" style="enable-background:new 0 0 100 100;" xml:space="preserve">
<path d="M100,50.3c0,12.37-4.03,23.22-12.1,32.56C79.84,92.2,69.82,97.82,57.86,99.7V64.82h11.69l2.22-14.52H57.86v-9.48
	c0-5.11,2.69-7.66,8.06-7.66h6.25v-12.3c-3.76-0.67-7.46-1.01-11.09-1.01c-3.9,0-7.23,0.74-9.98,2.22c-2.76,1.48-4.94,3.7-6.55,6.65
	c-1.61,2.96-2.42,6.45-2.42,10.48V50.3h-12.7v14.52h12.7V99.7C30.17,97.82,20.16,92.2,12.1,82.87C4.03,73.52,0,62.67,0,50.3
	c0-13.84,4.87-25.64,14.62-35.38C24.36,5.18,36.15,0.3,50,0.3c13.84,0,25.64,4.87,35.38,14.62C95.13,24.67,100,36.46,100,50.3z"/>
</svg>
