<?xml version="1.0" encoding="utf-8"?>
<!-- Generator: Adobe Illustrator 26.0.2, SVG Export Plug-In . SVG Version: 6.00 Build 0)  -->
<svg version="1.1" id="Layer_1" xmlns="http://www.w3.org/2000/svg" xmlns:xlink="http://www.w3.org/1999/xlink" x="0px" y="0px"
	 viewBox="0 0 100 100" style="enable-background:new 0 0 100 100;" xml:space="preserve">
<g>
	<path d="M50,39.61c-2.86,0-5.31,1.02-7.34,3.05c-2.03,2.03-3.05,4.48-3.05,7.34c0,2.86,1.02,5.31,3.05,7.34
		c2.03,2.03,4.48,3.05,7.34,3.05c2.86,0,5.31-1.02,7.34-3.05c2.03-2.03,3.05-4.48,3.05-7.34c0-2.86-1.02-5.31-3.05-7.34
		C55.31,40.62,52.86,39.61,50,39.61z"/>
	<path d="M74.94,34.55c-0.19-1.15-0.42-2.1-0.69-2.84c-1.11-2.86-3.1-4.85-5.96-5.96c-0.74-0.28-1.69-0.51-2.84-0.69
		c-1.16-0.18-2.54-0.32-4.16-0.42c-1.62-0.09-2.91-0.14-3.88-0.14c-0.97,0-2.4,0-4.3,0c-1.89,0-2.93,0-3.12,0c-0.19,0-1.2,0-3.05,0
		c-1.85,0-3.28,0-4.3,0c-1.02,0-2.33,0.05-3.95,0.14c-1.62,0.09-3,0.23-4.16,0.42c-1.16,0.19-2.1,0.42-2.84,0.69
		c-2.86,1.11-4.85,3.1-5.96,5.96c-0.28,0.74-0.51,1.69-0.69,2.84c-0.19,1.16-0.32,2.54-0.42,4.16c-0.09,1.62-0.14,2.91-0.14,3.88
		c0,0.97,0,2.4,0,4.3c0,1.89,0,2.93,0,3.12c0,0.37,0,1.23,0,2.56c0,1.34,0,2.45,0,3.33c0,0.88,0.02,2.01,0.07,3.4
		c0.05,1.39,0.11,2.56,0.21,3.53c0.09,0.97,0.23,1.96,0.42,2.98c0.18,1.02,0.37,1.85,0.55,2.49c1.2,2.86,3.19,4.85,5.96,5.96
		c0.74,0.28,1.68,0.51,2.84,0.69c1.15,0.19,2.54,0.32,4.16,0.42c1.62,0.09,2.91,0.14,3.88,0.14c0.97,0,2.4,0,4.3,0
		c1.89,0,2.93,0,3.12,0c0.28,0,1.32,0,3.12,0s3.21,0,4.23,0c1.02,0,2.33-0.05,3.95-0.14c1.62-0.09,3-0.23,4.16-0.42
		c1.15-0.18,2.1-0.42,2.84-0.69c2.86-1.2,4.85-3.19,5.96-5.96c0.28-0.74,0.51-1.68,0.69-2.84c0.18-1.15,0.32-2.54,0.42-4.16
		c0.09-1.62,0.14-2.93,0.14-3.95c0-1.01,0-2.45,0-4.3c0-1.85,0-2.89,0-3.12c0-0.23,0-1.25,0-3.05s0-3.21,0-4.23
		c0-1.02-0.05-2.33-0.14-3.95C75.27,37.09,75.13,35.7,74.94,34.55z M61.29,61.29c-3.1,3.1-6.86,4.64-11.29,4.64
		c-4.43,0-8.2-1.55-11.29-4.64c-3.1-3.09-4.64-6.86-4.64-11.29s1.55-8.2,4.64-11.29c3.09-3.09,6.86-4.64,11.29-4.64
		c4.44,0,8.2,1.55,11.29,4.64c3.09,3.1,4.64,6.86,4.64,11.29S64.39,58.2,61.29,61.29z M69.19,36c-0.69,0.74-1.55,1.11-2.56,1.11
		c-1.02,0-1.89-0.37-2.63-1.11c-0.74-0.74-1.11-1.62-1.11-2.63c0-1.01,0.37-1.87,1.11-2.56c0.74-0.69,1.62-1.04,2.63-1.04
		c1.02,0,1.87,0.35,2.56,1.04c0.69,0.69,1.04,1.55,1.04,2.56C70.23,34.39,69.89,35.26,69.19,36z"/>
	<path d="M50,0C22.39,0,0,22.39,0,50c0,27.61,22.39,50,50,50s50-22.39,50-50C100,22.39,77.61,0,50,0z M80.9,62.75
		c-0.28,5.64-1.96,10-5.06,13.1c-3.1,3.09-7.46,4.73-13.1,4.92C60.25,80.95,56,81.04,50,81.04c-6.01,0-10.25-0.09-12.75-0.28
		c-5.64-0.28-9.98-1.94-13.03-4.99c-1.2-1.11-2.17-2.4-2.91-3.88c-0.74-1.48-1.27-2.91-1.59-4.3c-0.32-1.39-0.48-3-0.48-4.85
		c-0.19-2.49-0.28-6.74-0.28-12.75c0-6,0.09-10.3,0.28-12.89c0.28-5.54,1.94-9.84,4.99-12.89c3.05-3.14,7.39-4.85,13.03-5.13
		c2.49-0.09,6.74-0.14,12.75-0.14c6,0,10.26,0.05,12.75,0.14c5.63,0.28,10,1.96,13.1,5.06c3.09,3.1,4.78,7.46,5.06,13.1
		c0.09,2.49,0.14,6.74,0.14,12.75C81.04,56.01,80.99,60.25,80.9,62.75z"/>
</g>
</svg>
