<?xml version="1.0" encoding="utf-8"?>
<!-- Generator: Adobe Illustrator 26.0.2, SVG Export Plug-In . SVG Version: 6.00 Build 0)  -->
<svg version="1.1" id="Layer_1" xmlns="http://www.w3.org/2000/svg" xmlns:xlink="http://www.w3.org/1999/xlink" x="0px" y="0px"
	 viewBox="0 0 100 100" style="enable-background:new 0 0 100 100;" xml:space="preserve">
<path d="M50,0C22.39,0,0,22.39,0,50c0,27.61,22.39,50,50,50s50-22.39,50-50C100,22.39,77.61,0,50,0z M34.61,77.98H22.89V40.55h11.72
	V77.98z M33.47,33.47c-1.34,1.35-2.94,2.02-4.81,2.02s-3.44-0.67-4.72-2.02c-1.29-1.34-1.93-2.91-1.93-4.72s0.64-3.38,1.93-4.72
	c1.28-1.34,2.85-2.01,4.72-2.01s3.47,0.67,4.81,2.01c1.34,1.34,2.01,2.91,2.01,4.72S34.81,32.12,33.47,33.47z M77.99,77.98H66.44
	V59.79c0-1.4-0.06-2.54-0.17-3.41c-0.12-0.88-0.32-1.9-0.61-3.06c-0.3-1.17-0.91-2.04-1.84-2.63c-0.93-0.58-2.1-0.87-3.5-0.87
	c-2.68,0-4.49,0.87-5.42,2.62c-0.93,1.75-1.4,4.09-1.4,7v18.54H41.78V40.55h11.2v5.07h0.17c0.82-1.63,2.19-3.03,4.11-4.2
	c1.92-1.16,4.23-1.75,6.91-1.75c2.8,0,5.16,0.44,7.08,1.32c1.93,0.87,3.36,2.16,4.29,3.84c0.93,1.7,1.57,3.53,1.92,5.51
	c0.35,1.99,0.53,4.38,0.53,7.18V77.98z"/>
</svg>
