<?xml version="1.0" encoding="utf-8"?>
<!-- Generator: Adobe Illustrator 26.0.2, SVG Export Plug-In . SVG Version: 6.00 Build 0)  -->
<svg version="1.1" id="Layer_1" xmlns="http://www.w3.org/2000/svg" xmlns:xlink="http://www.w3.org/1999/xlink" x="0px" y="0px"
	 viewBox="0 0 405.8 122.5" style="enable-background:new 0 0 405.8 122.5;" xml:space="preserve">
<style type="text/css">
	.st0{fill:#231F20;}
</style>
<g>
	<g>
		<g>
			<path class="st0" d="M6,72.6l2.8-0.7V42.4L6,41.7V41h11.8c5.5,0,9.7,1.4,12.7,4.2c2.9,2.8,4.4,6.8,4.4,11.9
				c0,5.1-1.5,9.1-4.4,11.9c-2.9,2.8-7.2,4.2-12.7,4.2H6V72.6z M17.8,72.2c2.9,0,5.1-1.2,6.7-3.5c1.6-2.3,2.4-6.2,2.4-11.5
				S26,48,24.4,45.6c-1.6-2.3-3.8-3.5-6.7-3.5h-1.4v30C16.4,72.2,17.8,72.2,17.8,72.2z"/>
			<path class="st0" d="M41.9,70.8c-2.2-2.2-3.3-5.2-3.3-9c0-2.5,0.5-4.7,1.4-6.5c0.9-1.8,2.3-3.3,4-4.2c1.7-1,3.7-1.5,5.9-1.5
				s4.2,0.4,5.9,1.2c1.7,0.8,3,2,3.9,3.3c0.9,1.4,1.4,3,1.4,4.7c0,0.8-0.1,1.4-0.2,2l-0.2,0.8c-1.3,0.3-2.8,0.5-4.3,0.7
				c-3.2,0.5-6.5,0.7-9.8,0.7c0,3.6,0.5,6.1,1.5,7.6c1,1.5,2.3,2.3,4.1,2.3c1.2,0,2.3-0.3,3.4-0.9c1-0.6,1.9-1.3,2.4-2.3
				c0.6-0.9,0.9-1.9,0.9-2.9h1.2c0,1.2-0.4,2.4-1.1,3.5s-1.8,2-3.1,2.7c-1.3,0.7-2.9,1-4.6,1C47.1,74,44,72.9,41.9,70.8z M51.2,61.5
				c0.5,0,1.1-0.1,1.7-0.2c0-0.2,0.1-0.5,0.2-1c0.1-0.8,0.2-1.6,0.2-2.5c0-2.6-0.3-4.4-1-5.6c-0.7-1.2-1.5-1.8-2.4-1.8
				c-2.3,0-3.5,3.8-3.5,11.3C48.4,61.8,50,61.7,51.2,61.5z"/>
			<path class="st0" d="M65.8,51.8c0.6-0.2,1.3-0.6,1.9-1.1c1.3-1,2.1-2.3,2.4-4l-0.6,0.4c-0.4,0.2-0.9,0.3-1.5,0.3
				c-0.9,0-1.7-0.3-2.4-1c-0.7-0.7-1-1.5-1-2.4c0-0.9,0.4-1.7,1-2.4c0.7-0.7,1.5-1,2.4-1c1.1,0,2,0.4,2.7,1.1c0.7,0.8,1,1.8,1,3
				c0,2.8-0.9,5-2.8,6.7c-0.8,0.7-1.7,1.3-2.8,1.7L65.8,51.8z"/>
			<path class="st0" d="M76.2,72.6l2.8-0.7V42.4l-2.8-0.7V41h12.5c4.7,0,8.1,0.8,10.3,2.2s3.3,3.4,3.3,5.8c0,1.7-0.5,3-1.4,4
				c-1,1-2.2,1.8-3.6,2.3c-1.6,0.5-3.3,0.8-5.1,0.9v0.2c2.2,0.1,4.2,0.4,5.9,1c1.7,0.5,3.1,1.4,4.2,2.6c1.1,1.2,1.7,2.7,1.7,4.5
				c0,2.7-1.1,4.9-3.4,6.4s-5.9,2.3-10.9,2.3H76.3L76.2,72.6L76.2,72.6z M88.7,55.8c1,0,2-0.3,2.8-0.9c0.9-0.6,1.6-1.4,2.1-2.4
				c0.5-1,0.8-2.2,0.8-3.4c0-1.4-0.3-2.6-0.8-3.6s-1.2-1.9-2.1-2.5c-0.9-0.6-1.8-0.9-2.8-0.9h-2.1v13.6L88.7,55.8L88.7,55.8z
				 M89.6,72.2c1.9,0,3.5-0.7,4.7-2s1.8-3.2,1.8-5.6c0-2.4-0.6-4.2-1.8-5.6c-1.2-1.3-2.8-2-4.7-2h-3v15.3L89.6,72.2L89.6,72.2z"/>
			<path class="st0" d="M110.5,70.8c-2.2-2.2-3.3-5.2-3.3-9c0-2.5,0.5-4.7,1.4-6.5c0.9-1.8,2.3-3.3,4-4.2c1.7-1,3.7-1.5,5.9-1.5
				s4.2,0.4,5.9,1.2c1.7,0.8,3,2,3.9,3.3c0.9,1.4,1.4,3,1.4,4.7c0,0.8-0.1,1.4-0.2,2l-0.2,0.8c-1.3,0.3-2.8,0.5-4.3,0.7
				c-3.2,0.5-6.5,0.7-9.8,0.7c0,3.6,0.5,6.1,1.5,7.6c1,1.5,2.3,2.3,4.1,2.3c1.2,0,2.3-0.3,3.4-0.9c1-0.6,1.9-1.3,2.4-2.3
				c0.6-0.9,0.9-1.9,0.9-2.9h1.2c0,1.2-0.4,2.4-1.1,3.5c-0.7,1.1-1.8,2-3.1,2.7c-1.3,0.7-2.9,1-4.6,1
				C115.7,74,112.7,72.9,110.5,70.8z M119.9,61.5c0.5,0,1.1-0.1,1.7-0.2c0-0.2,0.1-0.5,0.2-1c0.1-0.8,0.2-1.6,0.2-2.5
				c0-2.6-0.3-4.4-1-5.6c-0.7-1.2-1.5-1.8-2.4-1.8c-2.3,0-3.5,3.8-3.5,11.3C117,61.8,118.6,61.7,119.9,61.5z"/>
			<path class="st0" d="M133.1,72.6l2.8-0.7V51.6l-2.8-0.7v-0.7h4.2c1.8,0,3.2,0.6,4.3,1.8c0.4,0.5,0.7,1,1,1.7
				c0.4-0.8,0.9-1.5,1.5-2.1c1.4-1.4,3.1-2.1,5.2-2.1c1.7,0,3.3,0.4,4.6,1.1c1.4,0.7,2.4,1.7,3.2,2.8c0.8,1.2,1.2,2.4,1.2,3.7V72
				l2.8,0.7v0.7h-6c-2.8,0-4.2-1.4-4.2-4.2v-12c0-1.9-0.4-3.4-1-4.5s-1.5-1.5-2.4-1.5c-1.2,0-2.2,0.6-3.1,1.8
				c-0.4,0.5-0.7,1.1-1,1.8v17.1l2.8,0.7v0.7h-12.9L133.1,72.6L133.1,72.6z"/>
			<path class="st0" d="M166.5,72.3c-1.5-1.2-2.2-2.7-2.2-4.5c0-1.2,0.3-2.4,0.8-3.6c0.2-0.5,0.5-1.1,0.8-1.5
				c1.3-0.3,2.6-0.6,4.1-0.8c3.3-0.5,6.3-0.9,8.8-1v-1.4c0-3.4-0.4-5.8-1.2-7.1s-2.1-1.9-3.8-1.9c-0.6,0-1.2,0.1-1.7,0.2l-0.6,0.2
				v6.9l-0.6,0.1c-0.5,0.1-0.9,0.1-1.2,0.1c-1,0-1.9-0.3-2.5-1c-0.6-0.6-1-1.5-1-2.5c0-1.4,0.7-2.6,2.1-3.6c1.4-1,3.6-1.5,6.4-1.5
				c2.4,0,4.5,0.4,6.2,1.3c1.7,0.8,3.1,2,4,3.5c0.9,1.5,1.4,3.2,1.4,5.2v12.5l2.8,0.7v0.7h-4.2c-1.9,0-3.3-0.6-4.3-1.7
				c-0.4-0.5-0.8-1.1-1-1.8c-0.4,0.8-0.9,1.5-1.5,2.1c-1.4,1.4-3.1,2.1-5.2,2.1C170.1,74,168,73.4,166.5,72.3z M177.8,70.6
				c0.3-0.5,0.7-1.1,1.1-1.8V62c-1.4,0-2.8,0.1-4.1,0.2c-1,0.1-1.6,0.2-1.9,0.2c-0.1,0.3-0.3,0.8-0.5,1.4c-0.3,1.2-0.5,2.3-0.5,3.5
				c0,1.7,0.3,3,0.8,3.8c0.5,0.8,1.2,1.2,2,1.2C175.8,72.4,176.9,71.8,177.8,70.6z"/>
			<path class="st0" d="M191.8,72.6l2.8-0.7V51.6l-2.8-0.7v-0.7h4.2c1.8,0,3.2,0.6,4.3,1.8c0.4,0.5,0.7,1,1,1.7
				c0.4-0.8,0.9-1.5,1.5-2.1c1.4-1.4,3.1-2.1,5.2-2.1c1.7,0,3.3,0.4,4.6,1.1c1.4,0.7,2.4,1.7,3.2,2.8c0.8,1.2,1.2,2.4,1.2,3.7V72
				l2.8,0.7v0.7h-6c-2.8,0-4.2-1.4-4.2-4.2v-12c0-1.9-0.4-3.4-1-4.5s-1.5-1.5-2.4-1.5c-1.2,0-2.2,0.6-3.1,1.8
				c-0.4,0.5-0.7,1.1-1,1.8v17.1l2.8,0.7v0.7h-12.9L191.8,72.6L191.8,72.6z"/>
			<path class="st0" d="M226.7,82.5c-1.7-0.5-3-1.1-3.7-1.9c-0.8-0.8-1.1-1.6-1.1-2.4c0-1.1,0.3-1.9,1-2.5c0.6-0.6,1.5-0.9,2.5-0.9
				c0.2,0,0.7,0.1,1.3,0.1l0.5,0.1v6.5c0.4,0.1,1,0.3,1.8,0.5c1.4,0.3,2.8,0.5,4,0.5c3.8,0,6.5-0.5,8.2-1.6c1.7-1.1,2.6-2.4,2.6-3.9
				c0-2-1.9-3-5.5-3h-8.8c-2.3,0-4.1-0.5-5.3-1.4c-1.2-0.9-1.9-2.2-1.9-3.7s0.7-2.8,2.2-3.9c0.6-0.4,1.3-0.8,2.2-1.2
				c-1.1-0.7-2-1.5-2.5-2.5s-0.8-2.1-0.8-3.5c0-2.3,0.9-4.1,2.6-5.5s4.2-2.1,7.6-2.1c1.5,0,2.8,0.2,4,0.4c1.2,0.3,2.2,0.7,2.9,1.2
				c0.2-0.5,0.6-1,1-1.4c0.9-0.9,2.1-1.4,3.4-1.4c1,0,1.9,0.4,2.6,1.1c0.7,0.7,1.1,1.7,1.1,2.8c0,0.9-0.2,1.6-0.7,2.2
				s-1.1,0.8-1.8,0.8c-0.3,0-0.7,0-1.2-0.1l-0.5-0.1V50c-0.8,0-1.6,0.4-2.3,1.2c-0.3,0.3-0.5,0.7-0.7,1.2c1.5,1.4,2.3,3.1,2.3,5.3
				c0,2.3-0.9,4.1-2.6,5.5c-1.7,1.4-4.2,2.1-7.6,2.1c-2.2,0-4.2-0.4-6-1.2l-0.9,0.5c-0.3,0.2-0.5,0.4-0.7,0.5
				c-0.2,0.2-0.2,0.4-0.2,0.6c0,0.5,0.3,0.9,0.8,1.2s1.5,0.4,2.9,0.4h8.8c2.3,0,4.1,0.7,5.4,2c1.3,1.3,2,3.2,2,5.6
				c0,2.5-1,4.5-3.1,6c-2,1.5-5.1,2.3-9.2,2.3C230.6,83.3,228.4,83,226.7,82.5z M236,62.8c0.6-1,0.9-2.7,0.9-5.2
				c0-2.5-0.3-4.2-0.9-5.2c-0.6-1-1.4-1.5-2.4-1.5c-1,0-1.8,0.5-2.4,1.5c-0.6,1-0.9,2.7-0.9,5.2c0,2.5,0.3,4.2,0.9,5.2
				c0.6,1,1.4,1.5,2.4,1.5C234.6,64.3,235.4,63.8,236,62.8z"/>
			<path class="st0" d="M269.1,72.6c-0.9-0.4-1.6-0.9-2.2-1.5c-0.4,0.7-1,1.3-1.6,1.9c-0.6,0.4-0.9,0.6-0.9,0.7h-1.2v-8.8h1.9
				c0.5,1.5,1.1,2.9,1.9,4.1c1.9,2.7,4.3,4,7.3,4c1.8,0,3.2-0.5,4.2-1.6s1.6-2.4,1.6-4.2c0-1-0.3-1.9-0.9-2.7
				c-0.6-0.8-1.4-1.5-2.2-2.1c-0.9-0.6-2.1-1.4-3.7-2.3c-2-1.1-3.7-2.2-5-3.1c-1.3-0.9-2.3-2.1-3.2-3.5c-0.9-1.4-1.3-3.1-1.3-5
				c0-1.5,0.4-2.9,1.3-4.1c0.9-1.2,2.1-2.2,3.8-2.9c1.7-0.7,3.8-1.1,6.2-1.1c1.8,0,3.6,0.5,5.4,1.5c0.7,0.4,1.4,0.9,2,1.5
				c0.5-0.8,1.1-1.4,1.6-1.9c0.6-0.4,0.9-0.6,0.9-0.7h1.2v8.8h-1.9c-0.4-1.5-1-2.8-1.8-4c-0.7-1.2-1.7-2.1-2.8-2.9s-2.4-1.2-3.8-1.2
				c-1.2,0-2.2,0.5-3.1,1.4c-0.9,1-1.3,2.2-1.3,3.7c0,1.1,0.3,2.2,1,3.1s1.5,1.7,2.5,2.4s2.3,1.5,4,2.5c1.9,1.1,3.5,2.1,4.7,3
				c1.2,0.9,2.2,1.9,3,3.2s1.2,2.8,1.2,4.4c0,1.7-0.5,3.2-1.4,4.6c-1,1.4-2.4,2.5-4.3,3.3c-1.9,0.8-4.2,1.2-7,1.2
				C273,74,271,73.5,269.1,72.6z"/>
			<path class="st0" d="M297.6,72.9c-1.5-0.7-2.6-1.8-3.4-3.1s-1.2-2.8-1.2-4.4V51.4h-3.2v-1.2h3.2v-2.3c0-2.8,1.4-4.2,4.2-4.2h3.2
				v6.5h6.5v1.2h-6.5v14.1c0,2.8,0.3,4.8,0.9,5.8c0.6,1.1,1.5,1.6,2.6,1.6c1.1,0,2.1-0.5,2.9-1.6s1.2-2.5,1.2-4.4h1.2
				c0,2.3-0.6,4-1.7,5.3c-1.1,1.2-2.6,1.9-4.5,1.9C300.9,74,299.1,73.7,297.6,72.9z"/>
			<path class="st0" d="M315,70.8c-2.2-2.2-3.3-5.2-3.3-9s1.1-6.8,3.3-9s5.2-3.3,9-3.3c3.8,0,6.8,1.1,9,3.3c2.2,2.2,3.3,5.2,3.3,9
				s-1.1,6.8-3.3,9s-5.2,3.3-9,3.3S317.1,72.9,315,70.8z M327.1,70.5c0.9-1.7,1.3-4.6,1.3-8.7s-0.4-7-1.3-8.7
				c-0.9-1.7-1.9-2.6-3.1-2.6s-2.3,0.9-3.1,2.6s-1.3,4.6-1.3,8.7s0.4,7,1.3,8.7c0.9,1.7,1.9,2.6,3.1,2.6S326.2,72.2,327.1,70.5z"/>
			<path class="st0" d="M339.9,72.6l2.8-0.7V42.4l-2.8-0.7V41h6c2.8,0,4.2,1.4,4.2,4.2v16.2l8.5-9l-3.5-1.4v-0.7h8.8v0.7l-3.7,1.4
				l-5.3,5.5l9,14.1l2.3,0.7v0.7h-6c-1.5,0-2.7-0.3-3.6-1c-0.9-0.7-1.8-1.6-2.6-3l-3.9-6.2V72l2.8,0.7v0.7h-12.9L339.9,72.6
				L339.9,72.6z"/>
			<path class="st0" d="M370,70.8c-2.2-2.2-3.3-5.2-3.3-9c0-2.5,0.5-4.7,1.4-6.5c1-1.8,2.3-3.3,4-4.2c1.7-1,3.7-1.5,5.9-1.5
				s4.2,0.4,5.9,1.2s3,2,3.9,3.3c0.9,1.4,1.4,3,1.4,4.7c0,0.8-0.1,1.4-0.2,2l-0.2,0.8c-1.3,0.3-2.8,0.5-4.3,0.7
				c-3.2,0.5-6.5,0.7-9.8,0.7c0,3.6,0.5,6.1,1.5,7.6c1,1.5,2.3,2.3,4.1,2.3c1.2,0,2.3-0.3,3.4-0.9c1-0.6,1.8-1.3,2.5-2.3
				c0.6-0.9,0.9-1.9,0.9-2.9h1.2c0,1.2-0.4,2.4-1.1,3.5s-1.8,2-3.1,2.7c-1.3,0.7-2.9,1-4.6,1C375.2,74,372.2,72.9,370,70.8z
				 M379.4,61.5c0.5,0,1.1-0.1,1.7-0.2c0-0.2,0.1-0.5,0.2-1c0.1-0.8,0.2-1.6,0.2-2.5c0-2.6-0.3-4.4-1-5.6s-1.5-1.8-2.5-1.8
				c-2.3,0-3.5,3.8-3.5,11.3C376.5,61.8,378.1,61.7,379.4,61.5z"/>
			<path class="st0" d="M392.6,72.6l2.8-0.7V42.4l-2.8-0.7V41h6c2.8,0,4.2,1.4,4.2,4.2V72l2.8,0.7v0.7h-12.9V72.6z"/>
		</g>
		<g>
			<g>
				<path class="st0" d="M12.1,110.4c-1.1,0-2-0.2-2.9-0.5c-0.9-0.3-1.7-0.9-2.3-1.6s-1.2-1.5-1.5-2.5s-0.6-2.2-0.6-3.4
					c0-1.3,0.2-2.4,0.6-3.4s0.9-1.9,1.6-2.6s1.4-1.2,2.3-1.6c0.9-0.4,1.9-0.6,2.9-0.6c1.1,0,2.1,0.2,2.8,0.6s1.4,0.9,1.9,1.4
					L15.4,98c-0.4-0.4-0.8-0.7-1.3-1c-0.5-0.3-1.1-0.4-1.8-0.4c-0.7,0-1.3,0.1-1.9,0.4c-0.6,0.3-1.1,0.6-1.5,1.1
					c-0.4,0.5-0.7,1.1-0.9,1.8s-0.3,1.5-0.3,2.4c0,1.8,0.4,3.2,1.2,4.2s2,1.5,3.6,1.5c0.4,0,0.9-0.1,1.3-0.2c0.4-0.1,0.7-0.3,1-0.5
					v-3.4h-3v-2.3h5.4v6.9c-0.5,0.5-1.2,1-2.1,1.3C14.1,110.2,13.1,110.4,12.1,110.4z"/>
				<path class="st0" d="M18.6,110.1l5.1-15.6h3.2l5.1,15.6h-2.9l-1.2-4.2h-5.3l-1.2,4.2H18.6z M23.8,101.8l-0.6,1.9h4l-0.6-1.9
					c-0.2-0.8-0.5-1.7-0.7-2.6c-0.2-0.9-0.5-1.7-0.7-2.6h-0.1c-0.2,0.9-0.4,1.8-0.7,2.6C24.3,100.2,24.1,101,23.8,101.8z"/>
				<path class="st0" d="M34.2,110.1V94.5h5.3c0.8,0,1.6,0.1,2.3,0.2c0.7,0.2,1.3,0.4,1.8,0.8c0.5,0.4,0.9,0.8,1.2,1.4
					c0.3,0.6,0.4,1.3,0.4,2.2c0,1.2-0.3,2.2-0.9,2.9c-0.6,0.7-1.3,1.3-2.3,1.6l3.7,6.5h-3.1l-3.4-6.1H37v6.1L34.2,110.1L34.2,110.1z
					 M37,101.8h2.2c1.1,0,1.9-0.2,2.4-0.7c0.6-0.4,0.9-1.1,0.9-2c0-0.9-0.3-1.5-0.9-1.9s-1.4-0.5-2.4-0.5H37V101.8z"/>
				<path class="st0" d="M48.6,110.1V94.5h4.2c2.4,0,4.2,0.7,5.6,1.9c1.3,1.3,2,3.2,2,5.8c0,1.3-0.2,2.4-0.5,3.4s-0.8,1.8-1.5,2.5
					c-0.6,0.7-1.4,1.2-2.3,1.5c-0.9,0.3-2,0.5-3.1,0.5L48.6,110.1L48.6,110.1z M51.4,107.9h1.2c1.6,0,2.8-0.5,3.7-1.4
					c0.9-0.9,1.3-2.3,1.3-4.3c0-1.9-0.4-3.3-1.3-4.2s-2.1-1.3-3.6-1.3h-1.2L51.4,107.9L51.4,107.9z"/>
				<path class="st0" d="M63.7,110.1V94.5h9.4v2.3h-6.6v4h5.6v2.3h-5.6v4.6h6.9v2.3L63.7,110.1L63.7,110.1z"/>
				<path class="st0" d="M76.8,110.1V94.5h2.8l4.9,8.8l1.6,3.3h0.1c-0.1-0.8-0.1-1.7-0.2-2.6s-0.1-1.8-0.1-2.7v-6.8h2.6v15.6h-2.8
					l-4.9-8.8L79.2,98h-0.1c0.1,0.8,0.1,1.7,0.2,2.6c0.1,0.9,0.1,1.8,0.1,2.7v6.8L76.8,110.1L76.8,110.1z"/>
				<path class="st0" d="M100.6,110.1l-4.9-15.6h2.9l2.2,7.9c0.2,0.9,0.5,1.7,0.7,2.5s0.4,1.7,0.7,2.6h0.1c0.3-0.9,0.5-1.8,0.7-2.6
					c0.2-0.8,0.4-1.6,0.7-2.5l2.2-7.9h2.8l-4.9,15.6H100.6z"/>
				<path class="st0" d="M110.8,110.1V94.5h2.8v15.6H110.8z"/>
				<path class="st0" d="M117.8,110.1V94.5h2.8v13.3h6.5v2.3C127,110.1,117.8,110.1,117.8,110.1z"/>
				<path class="st0" d="M130,110.1V94.5h2.8v13.3h6.5v2.3C139.3,110.1,130,110.1,130,110.1z"/>
				<path class="st0" d="M140.2,110.1l5.1-15.6h3.2l5.1,15.6h-2.9l-1.2-4.2h-5.3l-1.2,4.2H140.2z M145.4,101.8l-0.5,1.9h4l-0.5-1.9
					c-0.2-0.8-0.5-1.7-0.7-2.6c-0.2-0.9-0.5-1.7-0.7-2.6h-0.1c-0.2,0.9-0.5,1.8-0.7,2.6C145.9,100.2,145.7,101,145.4,101.8z"/>
				<path class="st0" d="M160.4,110.4c-1,0-2.1-0.2-3-0.6c-1-0.4-1.8-1-2.6-1.7l1.6-1.9c0.6,0.5,1.2,0.9,1.9,1.3s1.4,0.5,2.1,0.5
					c0.9,0,1.6-0.2,2-0.6s0.7-0.8,0.7-1.5c0-0.3-0.1-0.6-0.2-0.8s-0.3-0.4-0.5-0.6s-0.5-0.3-0.8-0.5c-0.3-0.1-0.6-0.3-1-0.4
					l-2.1-0.9c-0.4-0.2-0.8-0.4-1.1-0.6c-0.4-0.2-0.7-0.5-1-0.9c-0.3-0.3-0.5-0.7-0.7-1.2c-0.2-0.4-0.3-1-0.3-1.5
					c0-0.6,0.1-1.2,0.4-1.7c0.3-0.5,0.6-1,1.1-1.4c0.5-0.4,1-0.7,1.7-0.9c0.6-0.2,1.4-0.3,2.1-0.3c0.9,0,1.8,0.2,2.6,0.5
					s1.6,0.8,2.2,1.4L164,98c-0.5-0.4-1-0.7-1.6-1c-0.5-0.2-1.1-0.4-1.8-0.4c-0.8,0-1.4,0.2-1.8,0.5c-0.5,0.3-0.7,0.8-0.7,1.3
					c0,0.3,0.1,0.6,0.2,0.8s0.3,0.4,0.5,0.6c0.2,0.2,0.5,0.3,0.8,0.4c0.3,0.1,0.6,0.3,0.9,0.4l2.1,0.9c0.5,0.2,0.9,0.4,1.3,0.7
					c0.4,0.2,0.7,0.6,1,0.9c0.3,0.3,0.5,0.7,0.7,1.2s0.2,0.9,0.2,1.5c0,0.6-0.1,1.2-0.4,1.8s-0.6,1.1-1.1,1.5s-1.1,0.8-1.8,1
					C162,110.3,161.2,110.4,160.4,110.4z"/>
			</g>
		</g>
	</g>
</g>
</svg>
