<?xml version="1.0" encoding="utf-8"?>
<!-- Generator: Adobe Illustrator 26.0.2, SVG Export Plug-In . SVG Version: 6.00 Build 0)  -->
<svg version="1.1" id="Layer_1" xmlns="http://www.w3.org/2000/svg" xmlns:xlink="http://www.w3.org/1999/xlink" x="0px" y="0px"
	 viewBox="0 0 170 171.36" style="enable-background:new 0 0 170 171.36;" xml:space="preserve">
<g>
	<g>
		<g>
			<g>
				<path d="M84.99,165.2c-43.85,0-79.52-35.67-79.52-79.53S41.15,6.15,84.99,6.15s79.53,35.67,79.53,79.53
					S128.85,165.2,84.99,165.2z M84.99,9.74C43.12,9.74,9.07,43.8,9.07,85.67s34.06,75.93,75.93,75.93s75.93-34.06,75.93-75.93
					S126.86,9.74,84.99,9.74z"/>
			</g>
			<g>
				<g>
					<path d="M84.99,155.57c-38.54,0-69.89-31.35-69.89-69.89s31.35-69.89,69.89-69.89s69.89,31.35,69.89,69.89
						S123.54,155.57,84.99,155.57z M84.99,18.78c-36.89,0-66.9,30.01-66.9,66.9s30.01,66.9,66.9,66.9s66.9-30.01,66.9-66.9
						S121.88,18.78,84.99,18.78z"/>
				</g>
				<g>
					<path d="M134.85,52.31c-3.15-12.67-16.94-24-29.21-31.85c-3.12-0.99-6.34-1.75-9.64-2.29c13,7.29,32.32,20.3,35.94,34.86
						c2.93,11.79,2.7,33.58,2.31,45.51c-0.02,0.5,0.22,0.98,0.63,1.27l14.12,9.96c0.37-0.97,0.71-1.95,1.03-2.94l-12.76-9.01
						C137.65,85.59,137.8,64.19,134.85,52.31z"/>
					<path d="M17.51,96.76l4.78-3.37c0.41-0.29,0.64-0.76,0.63-1.25c-0.32-17.32,0.46-30.65,2.31-39.71
						c-1.7,3.06-3.19,6.25-4.42,9.58c-0.79,7.98-1.1,17.8-0.9,29.39l-2.86,2.02C17.18,94.54,17.32,95.65,17.51,96.76z"/>
					<path d="M147.07,92.13c-0.01,0.5,0.23,0.97,0.63,1.25l4.78,3.37c0.18-1.11,0.33-2.22,0.46-3.34l-2.86-2.02
						c0.19-11.59-0.11-21.41-0.9-29.39c-1.23-3.32-2.71-6.52-4.42-9.58C146.61,61.49,147.39,74.81,147.07,92.13z"/>
					<path d="M120.92,27.49c8.23,7,14.94,15.14,17.15,24.02c2.79,11.23,2.95,30.04,2.59,43.84c-0.01,0.5,0.22,0.97,0.63,1.26
						l9.73,6.86c0.28-1.03,0.53-2.08,0.76-3.13l-8.11-5.72c0.33-13.91,0.12-32.5-2.7-43.84c-0.82-3.29-2.2-6.46-4-9.52
						C132.39,35.89,126.98,31.23,120.92,27.49z"/>
					<path d="M50.43,141.52c-0.09-0.36-0.31-0.67-0.61-0.88c-2.79-1.91-5.11-4.44-6.52-7.11l-1.29-2.44v-2.83
						c0-0.5-0.25-0.97-0.67-1.25s-0.95-0.32-1.42-0.12l-7.06,3.04c0.68,0.8,1.38,1.59,2.1,2.36l4.06-1.75v0.92
						c0,0.24,0.06,0.48,0.17,0.7l1.47,2.77c1.56,2.95,4.03,5.72,7.01,7.85l0.05,0.23c1.18,0.77,2.39,1.5,3.62,2.2L50.43,141.52z"/>
					<path d="M20.99,109.79l14.12-9.96c0.41-0.29,0.65-0.77,0.63-1.27c-0.4-11.94-0.63-33.72,2.31-45.51
						c3.62-14.57,22.98-27.59,35.94-34.86c-3.3,0.53-6.52,1.3-9.64,2.28c-12.26,7.85-26.06,19.18-29.21,31.85
						c-2.96,11.88-2.81,33.28-2.42,45.53l-12.76,9.01C20.27,107.83,20.62,108.82,20.99,109.79z"/>
					<path d="M18.96,103.48l9.73-6.86c0.41-0.29,0.65-0.76,0.63-1.26c-0.36-13.8-0.2-32.61,2.59-43.84
						c2.21-8.89,8.92-17.03,17.16-24.03c-6.05,3.74-11.46,8.4-16.06,13.78c-1.81,3.06-3.19,6.24-4,9.52
						c-2.82,11.33-3.04,29.93-2.7,43.84l-8.11,5.72C18.43,101.4,18.68,102.44,18.96,103.48z"/>
					<path d="M95.73,112.69H73.93c-0.83,0-1.5,0.67-1.5,1.5v6.52c0,0.83,0.67,1.5,1.5,1.5h21.79c0.83,0,1.5-0.67,1.5-1.5v-6.52
						C97.23,113.36,96.55,112.69,95.73,112.69z M94.23,119.21h-18.8v-3.52h18.8V119.21z"/>
					<path d="M25.26,112.48l6.97,12.61c0.37,0.67,1.2,0.96,1.9,0.65l5.27-2.27c1.95-0.84,3.96-1.69,5.94-2.51v8.92
						c0,0.24,0.06,0.48,0.17,0.7l0.73,1.39c0.55,1.04,2.62,4.49,6.96,6.84l1.95,8.03c0.05,0.19,0.14,0.36,0.25,0.51
						c0.46,0.22,0.93,0.42,1.4,0.63h56.41c0.46-0.21,0.92-0.4,1.37-0.62c0.19-0.25,0.32-0.54,0.32-0.88v-6.32c0,0,0,0,0-0.01
						c0-0.01,0,0,0-0.01v-0.45c4.43-1.74,7.46-5.07,8.86-7.73l0.73-1.39c0.11-0.22,0.17-0.46,0.17-0.7v-8.92
						c1.97,0.82,3.99,1.67,5.94,2.51l5.27,2.27c0.71,0.31,1.53,0.02,1.9-0.65l6.97-12.61c0.37-0.67,0.18-1.51-0.45-1.95l-13.46-9.49
						c0.42-10.67,0.96-34.82-2.12-47.2c-3.77-15.17-27.67-29.29-38.14-34.83l-1.09-1.56c-1.48-0.1-2.98-0.16-4.49-0.16
						c-1.54,0-3.06,0.07-4.57,0.17l-1.07,1.59c-10.46,5.54-34.31,19.64-38.08,34.8c-3.08,12.37-2.54,36.52-2.12,47.2l-13.46,9.49
						C25.07,110.97,24.88,111.81,25.26,112.48z M57.77,144.98l-0.81-3.33h14.2c0.65,0,1.22-0.43,1.42-1.04
						c0.2-0.62-0.03-1.3-0.56-1.68c-0.08-0.06-1.74-1.29-2.16-4.37h30.25c-0.43,3.08-2.08,4.31-2.15,4.36
						c-0.54,0.37-0.78,1.05-0.59,1.68s0.77,1.06,1.43,1.06h13.07v3.33h-54.1V144.98z M62.9,132.98c-0.04-0.8-0.7-1.42-1.5-1.42
						c-3.31,0-5.34-1.86-6.29-3.02h6.96c0.83,0,1.5-0.67,1.5-1.5v-19.29c0-0.82-0.67-1.49-1.49-1.5c0,0-0.66,0-3.32,0
						c-2.54,0-16.05,5.66-21.81,8.13l-0.15-0.27l11.23-7.92c0.42-0.3,0.66-0.79,0.63-1.31c-0.02-0.34-1.88-34.58,1.65-48.78
						c3.13-12.6,29.88-26.99,34.67-29.48c4.79,2.49,31.53,16.87,34.67,29.48c3.53,14.2,1.67,48.44,1.65,48.78
						c-0.03,0.52,0.21,1.01,0.63,1.31l11.23,7.92l-0.15,0.27c-5.76-2.46-19.27-8.12-21.81-8.13c-2.65,0-3.32,0-3.32,0
						c-0.82,0-1.49,0.67-1.49,1.5v19.29c0,0.83,0.67,1.5,1.5,1.5h6.95c-0.95,1.17-2.98,3.02-6.29,3.02c-0.41,0-0.79,0.16-1.08,0.46
						c-0.28,0.29-0.43,0.68-0.42,1.09c0.05,1.62,0.45,3.8,1.45,5.56h-6.61c0.7-1.32,1.3-3.16,1.3-5.6c0-0.83-0.67-1.5-1.5-1.5H68.25
						c-0.83,0-1.5,0.67-1.5,1.5c0,2.44,0.59,4.28,1.3,5.6h-7.22C63.04,135.98,62.91,133.14,62.9,132.98z M41.55,103.01
						c0.42-0.29,0.65-0.78,0.63-1.29c-0.42-10.08-1.07-34.84,2-47.16c3.62-14.54,29.16-28.97,36.9-33.05
						c0.22-0.12,0.41-0.29,0.55-0.49l1.59-2.37l1.07,0.53c0.42,0.21,0.93,0.21,1.35-0.01l1.03-0.52l1.65,2.37
						c0.14,0.2,0.32,0.36,0.53,0.47c7.75,4.08,33.33,18.52,36.95,33.07c3.07,12.33,2.42,37.09,2,47.17
						c-0.02,0.51,0.22,0.99,0.63,1.29l13.03,9.19l-5.66,10.25l-4.02-1.73c-6.25-2.69-12.93-5.4-17.02-6.91
						c-0.46-0.17-0.97-0.1-1.37,0.18s-0.64,0.74-0.64,1.23v5.49c0,0.83,0.67,1.5,1.5,1.5h7.42v7.3l-0.56,1.06
						c-1.18,2.24-4.03,5.32-8.17,6.65c-0.45,0.15-0.8,0.5-0.95,0.93c-1.03-0.83-1.51-2.49-1.73-3.71c5.4-0.79,7.8-5.22,7.91-5.42
						c0.11-0.22,0.17-0.46,0.17-0.7v-1.28c0-0.83-0.67-1.5-1.5-1.5h-7.42v-16.29c0.46,0,1.05,0,1.81,0
						c1.58,0.05,12.36,4.32,21.88,8.42c0.71,0.31,1.53,0.02,1.9-0.65l1.45-2.63c0.37-0.67,0.18-1.51-0.45-1.95l-11.65-8.22
						c0.28-5.49,1.59-35.3-1.78-48.84c-3.43-13.8-30.15-28.29-36.32-31.48c-0.25-0.27-0.6-0.42-0.97-0.46
						c-0.56-0.16-1.16,0.02-1.54,0.47c-6.19,3.2-32.89,17.69-36.32,31.48c-3.37,13.55-2.06,43.36-1.78,48.84l-11.65,8.22
						c-0.62,0.44-0.82,1.28-0.45,1.95l1.45,2.63c0.37,0.68,1.2,0.96,1.9,0.65c9.52-4.1,20.31-8.37,21.88-8.42c0.75,0,1.35,0,1.81,0
						v16.29h-7.42c-0.83,0-1.5,0.67-1.5,1.5v1.28c0,0.24,0.06,0.48,0.17,0.7c0.11,0.21,2.51,4.63,7.9,5.42
						c-0.32,1.17-1.19,2.9-3.49,4.2l-0.29-1.2c-0.1-0.43-0.4-0.8-0.8-0.99c-3.15-1.54-5.3-4.05-6.26-5.88l-0.56-1.06v-7.3h7.42
						c0.83,0,1.5-0.67,1.5-1.5v-5.49c0-0.49-0.24-0.95-0.64-1.23c-0.4-0.28-0.92-0.35-1.37-0.18c-4.1,1.51-10.79,4.22-17.02,6.91
						l-4.02,1.73l-5.66-10.25L41.55,103.01z M120.36,119.21h-4.64v-1.83C117.11,117.91,118.68,118.53,120.36,119.21z M49.62,119.21
						c1.68-0.68,3.25-1.3,4.64-1.83v1.83H49.62z"/>
					<path d="M65.76,151.32c6.1,1.79,12.55,2.76,19.24,2.76c6.68,0,13.13-0.98,19.24-2.76H65.76z"/>
					<path d="M130.08,126.87c-0.46-0.2-0.99-0.15-1.42,0.12c-0.42,0.28-0.67,0.75-0.67,1.25v2.83l-1.29,2.45
						c-1.6,3.03-4.5,5.98-7.74,7.88c-0.46,0.27-0.74,0.76-0.74,1.29v2.76c1.02-0.57,2.01-1.16,3-1.77v-0.15
						c3.44-2.19,6.38-5.29,8.13-8.61l1.47-2.77c0.11-0.22,0.17-0.46,0.17-0.7v-0.92l4.06,1.75c0.72-0.77,1.42-1.56,2.1-2.36
						L130.08,126.87z"/>
					<path d="M67.6,128.53h34.44c0.83,0,1.5-0.67,1.5-1.5v-19.17c0-0.83-0.67-1.5-1.5-1.5H67.6c-0.83,0-1.5,0.67-1.5,1.5v19.17
						C66.1,127.86,66.77,128.53,67.6,128.53z M69.1,109.36h31.45v16.18H69.1V109.36z"/>
					<path d="M86.04,68.07H83.4c-0.83,0-1.5,0.67-1.5,1.5v20.3c0,0.83,0.67,1.5,1.5,1.5h2.65c0.83,0,1.5-0.67,1.5-1.5v-20.3
						C87.54,68.74,86.88,68.07,86.04,68.07z"/>
					<path d="M88.68,137.88h-7.4c-0.66,0-1.24,0.43-1.43,1.06c-0.19,0.63,0.05,1.31,0.59,1.68l3.7,2.51
						c0.25,0.17,0.55,0.26,0.84,0.26s0.59-0.09,0.84-0.26l3.7-2.51c0.54-0.37,0.78-1.05,0.59-1.68
						C89.93,138.32,89.35,137.88,88.68,137.88z"/>
					<path d="M77.07,97.69h15.31c0.83,0,1.5-0.67,1.5-1.5V63.24c0-0.83-0.67-1.5-1.5-1.5H77.07c-0.83,0-1.5,0.67-1.5,1.5v32.95
						C75.57,97.02,76.24,97.69,77.07,97.69z M78.57,64.74h12.31V94.7H78.57V64.74z"/>
				</g>
			</g>
		</g>
	</g>
</g>
</svg>
