<?xml version="1.0" encoding="utf-8"?>
<!-- Generator: Adobe Illustrator 26.0.2, SVG Export Plug-In . SVG Version: 6.00 Build 0)  -->
<svg version="1.1" id="Layer_1" xmlns="http://www.w3.org/2000/svg" xmlns:xlink="http://www.w3.org/1999/xlink" x="0px" y="0px"
	 viewBox="0 0 468 345.75" style="enable-background:new 0 0 468 345.75;" xml:space="preserve">
<style type="text/css">
	.st0{fill:#FFFFFF;}
</style>
<g>
	<g>
		<g>
			<path class="st0" d="M6.03,274.61l3.16-0.79v-33.75l-3.16-0.79v-0.79h13.45c6.29,0,11.12,1.62,14.48,4.85s5.04,7.77,5.04,13.61
				c0,5.84-1.68,10.37-5.04,13.61c-3.36,3.24-8.18,4.85-14.48,4.85H6.03V274.61z M19.48,274.08c3.27,0,5.8-1.33,7.6-3.98
				c1.79-2.65,2.69-7.04,2.69-13.16c0-6.12-0.9-10.5-2.69-13.16c-1.79-2.65-4.33-3.98-7.6-3.98H17.9v34.28H19.48z"/>
			<path class="st0" d="M46.96,272.47c-2.5-2.48-3.74-5.9-3.74-10.26c0-2.85,0.55-5.33,1.64-7.44c1.09-2.11,2.61-3.73,4.56-4.85
				c1.95-1.12,4.19-1.69,6.72-1.69s4.76,0.48,6.67,1.42c1.92,0.95,3.39,2.23,4.43,3.82c1.04,1.6,1.56,3.37,1.56,5.3
				c0,0.88-0.09,1.64-0.26,2.27l-0.26,0.9c-1.51,0.32-3.15,0.58-4.91,0.79c-3.69,0.53-7.42,0.79-11.18,0.79
				c0,4.08,0.56,6.99,1.69,8.73c1.12,1.74,2.67,2.61,4.64,2.61c1.37,0,2.65-0.32,3.82-0.98c1.18-0.65,2.11-1.51,2.8-2.58
				c0.69-1.07,1.03-2.17,1.03-3.3h1.32c0,1.41-0.42,2.74-1.27,4.01c-0.84,1.27-2.02,2.28-3.53,3.03c-1.51,0.76-3.25,1.13-5.22,1.13
				C52.95,276.19,49.46,274.95,46.96,272.47z M57.66,261.95c0.6-0.03,1.23-0.12,1.9-0.26c0.03-0.18,0.12-0.56,0.26-1.16
				c0.18-0.88,0.26-1.81,0.26-2.79c0-2.92-0.39-5.05-1.16-6.41s-1.71-2.03-2.79-2.03c-2.64,0-3.96,4.31-3.96,12.92
				C54.43,262.22,56.26,262.13,57.66,261.95z"/>
			<path class="st0" d="M74.33,250.88c0.74-0.25,1.48-0.65,2.21-1.21c1.51-1.12,2.44-2.65,2.8-4.59l-0.69,0.42
				c-0.46,0.25-1.02,0.37-1.69,0.37c-1.05,0-1.98-0.4-2.77-1.19c-0.79-0.79-1.19-1.71-1.19-2.77c0-1.06,0.4-1.98,1.19-2.77
				c0.79-0.79,1.71-1.19,2.77-1.19c1.23,0,2.24,0.43,3.03,1.29c0.79,0.86,1.19,2.01,1.19,3.45c0,3.24-1.06,5.77-3.16,7.6
				c-0.91,0.84-1.97,1.48-3.16,1.9L74.33,250.88z"/>
			<path class="st0" d="M86.2,274.61l3.16-0.79v-33.75l-3.16-0.79v-0.79h14.24c5.34,0,9.27,0.85,11.79,2.56
				c2.51,1.71,3.77,3.93,3.77,6.67c0,1.9-0.55,3.43-1.63,4.59c-1.09,1.16-2.48,2.02-4.17,2.58c-1.79,0.63-3.73,0.97-5.8,1v0.26
				c2.57,0.11,4.8,0.49,6.7,1.16c1.93,0.63,3.54,1.62,4.83,2.95c1.28,1.34,1.92,3.04,1.92,5.12c0,3.13-1.28,5.58-3.85,7.36
				c-2.57,1.78-6.73,2.66-12.5,2.66H86.2V274.61z M100.44,255.36c1.16,0,2.24-0.32,3.24-0.98c1-0.65,1.81-1.56,2.43-2.74
				c0.61-1.18,0.92-2.49,0.92-3.93c0-1.55-0.31-2.92-0.92-4.11c-0.62-1.2-1.42-2.13-2.43-2.8c-1-0.67-2.08-1-3.24-1h-2.37v15.56
				H100.44z M101.49,274.08c2.18,0,3.96-0.77,5.33-2.32c1.37-1.55,2.06-3.67,2.06-6.38c0-2.71-0.69-4.83-2.06-6.38
				c-1.37-1.55-3.15-2.32-5.33-2.32h-3.43v17.4H101.49z"/>
			<path class="st0" d="M125.28,272.47c-2.5-2.48-3.74-5.9-3.74-10.26c0-2.85,0.55-5.33,1.64-7.44c1.09-2.11,2.61-3.73,4.56-4.85
				c1.95-1.12,4.19-1.69,6.72-1.69s4.76,0.48,6.67,1.42c1.92,0.95,3.39,2.23,4.43,3.82c1.04,1.6,1.56,3.37,1.56,5.3
				c0,0.88-0.09,1.64-0.26,2.27l-0.26,0.9c-1.51,0.32-3.15,0.58-4.91,0.79c-3.69,0.53-7.42,0.79-11.18,0.79
				c0,4.08,0.56,6.99,1.69,8.73c1.12,1.74,2.67,2.61,4.64,2.61c1.37,0,2.65-0.32,3.82-0.98c1.18-0.65,2.11-1.51,2.8-2.58
				c0.69-1.07,1.03-2.17,1.03-3.3h1.32c0,1.41-0.42,2.74-1.27,4.01c-0.84,1.27-2.02,2.28-3.53,3.03c-1.51,0.76-3.25,1.13-5.22,1.13
				C131.27,276.19,127.77,274.95,125.28,272.47z M135.98,261.95c0.6-0.03,1.23-0.12,1.9-0.26c0.03-0.18,0.12-0.56,0.26-1.16
				c0.18-0.88,0.26-1.81,0.26-2.79c0-2.92-0.39-5.05-1.16-6.41s-1.71-2.03-2.79-2.03c-2.64,0-3.96,4.31-3.96,12.92
				C132.75,262.22,134.58,262.13,135.98,261.95z"/>
			<path class="st0" d="M151.07,274.61l3.16-0.79v-23.21l-3.16-0.79v-0.79h4.75c2.07,0,3.71,0.67,4.9,2
				c0.46,0.53,0.84,1.18,1.16,1.95c0.49-0.91,1.07-1.7,1.74-2.37c1.58-1.58,3.55-2.37,5.91-2.37c1.97,0,3.74,0.41,5.3,1.24
				c1.57,0.83,2.79,1.91,3.67,3.24c0.88,1.34,1.32,2.74,1.32,4.22v16.88l3.16,0.79v0.79h-6.86c-3.16,0-4.75-1.58-4.75-4.75v-13.71
				c0-2.21-0.4-3.91-1.19-5.09c-0.79-1.18-1.71-1.77-2.77-1.77c-1.34,0-2.53,0.7-3.59,2.11c-0.46,0.6-0.84,1.3-1.16,2.11v19.51
				l3.16,0.79v0.79h-14.77V274.61z"/>
			<path class="st0" d="M189.2,274.19c-1.69-1.33-2.53-3.04-2.53-5.12c0-1.37,0.3-2.72,0.9-4.06c0.25-0.63,0.56-1.21,0.95-1.74
				c1.44-0.35,3.01-0.67,4.69-0.95c3.8-0.63,7.15-1.02,10.07-1.16v-1.58c0-3.9-0.47-6.59-1.42-8.07c-0.95-1.48-2.41-2.21-4.38-2.21
				c-0.74,0-1.37,0.09-1.9,0.26l-0.74,0.26v7.91l-0.69,0.16c-0.56,0.07-1.04,0.11-1.42,0.11c-1.2,0-2.15-0.36-2.87-1.08
				c-0.72-0.72-1.08-1.68-1.08-2.87c0-1.62,0.82-2.99,2.45-4.11c1.63-1.12,4.07-1.69,7.3-1.69c2.74,0,5.11,0.48,7.09,1.45
				c1.99,0.97,3.5,2.3,4.54,4.01c1.04,1.71,1.56,3.67,1.56,5.88v14.24l3.16,0.79v0.79h-4.75c-2.11,0-3.74-0.65-4.9-1.95
				c-0.49-0.53-0.88-1.19-1.16-2c-0.49,0.88-1.07,1.67-1.74,2.37c-1.58,1.58-3.55,2.37-5.91,2.37
				C193.3,276.19,190.89,275.52,189.2,274.19z M202.07,272.24c0.39-0.53,0.79-1.23,1.21-2.11v-7.65c-1.62,0-3.16,0.09-4.64,0.26
				c-1.09,0.14-1.83,0.23-2.22,0.26c-0.18,0.39-0.35,0.91-0.53,1.58c-0.35,1.34-0.53,2.65-0.53,3.96c0,1.97,0.3,3.43,0.9,4.38
				c0.6,0.95,1.35,1.42,2.27,1.42C199.83,274.35,201.01,273.64,202.07,272.24z"/>
			<path class="st0" d="M218.05,274.61l3.16-0.79v-23.21l-3.16-0.79v-0.79h4.75c2.07,0,3.71,0.67,4.91,2
				c0.46,0.53,0.84,1.18,1.16,1.95c0.49-0.91,1.07-1.7,1.74-2.37c1.58-1.58,3.55-2.37,5.91-2.37c1.97,0,3.74,0.41,5.3,1.24
				c1.56,0.83,2.79,1.91,3.67,3.24c0.88,1.34,1.32,2.74,1.32,4.22v16.88l3.16,0.79v0.79h-6.86c-3.16,0-4.75-1.58-4.75-4.75v-13.71
				c0-2.21-0.4-3.91-1.19-5.09c-0.79-1.18-1.71-1.77-2.77-1.77c-1.34,0-2.53,0.7-3.59,2.11c-0.46,0.6-0.84,1.3-1.16,2.11v19.51
				l3.16,0.79v0.79h-14.77V274.61z"/>
			<path class="st0" d="M257.87,285.9c-1.97-0.56-3.38-1.28-4.25-2.16c-0.86-0.88-1.29-1.81-1.29-2.79c0-1.2,0.36-2.15,1.08-2.87
				c0.72-0.72,1.68-1.08,2.87-1.08c0.28,0,0.79,0.05,1.53,0.16l0.58,0.11v7.38c0.42,0.14,1.09,0.32,2,0.53
				c1.62,0.35,3.15,0.53,4.59,0.53c4.29,0,7.43-0.61,9.41-1.82c1.99-1.21,2.98-2.72,2.98-4.51c0-2.29-2.11-3.43-6.33-3.43h-10.02
				c-2.64,0-4.66-0.54-6.06-1.63c-1.41-1.09-2.11-2.48-2.11-4.17c0-1.69,0.83-3.18,2.48-4.48c0.67-0.49,1.51-0.93,2.53-1.32
				c-1.3-0.81-2.24-1.77-2.82-2.87c-0.58-1.11-0.87-2.44-0.87-3.98c0-2.6,0.98-4.7,2.95-6.3c1.97-1.6,4.85-2.4,8.65-2.4
				c1.65,0,3.17,0.17,4.56,0.5c1.39,0.33,2.5,0.78,3.35,1.35c0.28-0.6,0.65-1.13,1.11-1.58c1.06-1.06,2.36-1.58,3.9-1.58
				c1.2,0,2.2,0.41,3.01,1.24c0.81,0.83,1.21,1.91,1.21,3.24c0,1.02-0.27,1.85-0.82,2.48c-0.55,0.63-1.24,0.95-2.08,0.95
				c-0.39,0-0.83-0.03-1.32-0.11l-0.53-0.16v-6.33c-0.92,0-1.78,0.44-2.58,1.32c-0.32,0.32-0.6,0.76-0.84,1.32
				c1.76,1.55,2.64,3.57,2.64,6.07c0,2.6-0.98,4.7-2.95,6.3c-1.97,1.6-4.85,2.4-8.65,2.4c-2.53,0-4.82-0.44-6.86-1.32l-1.06,0.53
				c-0.35,0.21-0.61,0.41-0.79,0.61c-0.18,0.19-0.26,0.43-0.26,0.71c0,0.6,0.31,1.05,0.92,1.37c0.61,0.32,1.71,0.48,3.3,0.48h10.02
				c2.64,0,4.7,0.76,6.2,2.29c1.49,1.53,2.24,3.67,2.24,6.41c0,2.81-1.17,5.1-3.51,6.86c-2.34,1.76-5.83,2.64-10.47,2.64
				C262.39,286.74,259.84,286.46,257.87,285.9z M268.49,263.43c0.65-1.12,0.98-3.11,0.98-5.96c0-2.85-0.33-4.83-0.98-5.96
				c-0.65-1.12-1.56-1.69-2.72-1.69s-2.07,0.56-2.72,1.69c-0.65,1.13-0.98,3.11-0.98,5.96c0,2.85,0.32,4.83,0.98,5.96
				c0.65,1.13,1.56,1.69,2.72,1.69S267.84,264.56,268.49,263.43z"/>
			<path class="st0" d="M306.23,274.5c-0.98-0.49-1.81-1.07-2.48-1.74c-0.49,0.81-1.11,1.53-1.85,2.16
				c-0.63,0.46-0.98,0.7-1.06,0.74h-1.32v-10.02h2.11c0.53,1.72,1.27,3.27,2.21,4.64c2.14,3.06,4.92,4.59,8.33,4.59
				c2,0,3.6-0.6,4.8-1.79c1.2-1.2,1.79-2.79,1.79-4.8c0-1.16-0.34-2.2-1.03-3.11c-0.69-0.91-1.54-1.72-2.56-2.43
				c-1.02-0.7-2.44-1.58-4.27-2.64c-2.32-1.3-4.2-2.48-5.64-3.53c-1.44-1.06-2.67-2.38-3.69-3.98c-1.02-1.6-1.53-3.49-1.53-5.67
				c0-1.72,0.48-3.28,1.45-4.67c0.97-1.39,2.42-2.5,4.35-3.32s4.31-1.24,7.12-1.24c2.04,0,4.08,0.58,6.12,1.74
				c0.77,0.42,1.55,0.98,2.32,1.69c0.6-0.91,1.21-1.63,1.85-2.16c0.63-0.46,0.98-0.7,1.05-0.74h1.32v10.02h-2.11
				c-0.46-1.69-1.14-3.22-2.06-4.59c-0.84-1.33-1.89-2.44-3.14-3.32c-1.25-0.88-2.68-1.32-4.3-1.32c-1.37,0-2.55,0.55-3.53,1.64
				c-0.98,1.09-1.48,2.48-1.48,4.17c0,1.3,0.38,2.47,1.13,3.51c0.76,1.04,1.69,1.94,2.79,2.72s2.61,1.7,4.51,2.79
				c2.21,1.27,4.01,2.39,5.38,3.37c1.37,0.98,2.53,2.21,3.48,3.67c0.95,1.46,1.42,3.14,1.42,5.04c0,1.9-0.55,3.63-1.63,5.2
				c-1.09,1.57-2.73,2.8-4.91,3.72s-4.83,1.37-7.96,1.37C310.75,276.19,308.41,275.63,306.23,274.5z"/>
			<path class="st0" d="M338.85,274.93c-1.71-0.84-3.02-2-3.93-3.48c-0.92-1.48-1.37-3.15-1.37-5.01v-16.09h-3.69v-1.32h3.69v-2.64
				c0-3.16,1.58-4.75,4.75-4.75h3.69v7.38h7.38v1.32h-7.38v16.09c0,3.24,0.33,5.45,1,6.64c0.67,1.2,1.65,1.79,2.95,1.79
				c1.27,0,2.37-0.61,3.32-1.85c0.95-1.23,1.42-2.9,1.42-5.01h1.32c0,2.6-0.65,4.61-1.95,6.04c-1.3,1.42-3.02,2.14-5.17,2.14
				C342.57,276.19,340.55,275.77,338.85,274.93z"/>
			<path class="st0" d="M358.63,272.47c-2.48-2.48-3.72-5.9-3.72-10.26c0-4.36,1.24-7.78,3.72-10.26c2.48-2.48,5.9-3.72,10.26-3.72
				s7.78,1.24,10.26,3.72c2.48,2.48,3.72,5.9,3.72,10.26c0,4.36-1.24,7.78-3.72,10.26c-2.48,2.48-5.9,3.72-10.26,3.72
				S361.11,274.95,358.63,272.47z M372.44,272.18c0.97-1.97,1.45-5.29,1.45-9.97c0-4.68-0.48-8-1.45-9.97
				c-0.97-1.97-2.15-2.95-3.56-2.95s-2.59,0.98-3.56,2.95c-0.97,1.97-1.45,5.29-1.45,9.97c0,4.68,0.48,8,1.45,9.97
				c0.97,1.97,2.15,2.95,3.56,2.95S371.48,274.15,372.44,272.18z"/>
			<path class="st0" d="M387.08,274.61l3.16-0.79v-33.75l-3.16-0.79v-0.79h6.86c3.16,0,4.75,1.58,4.75,4.75v18.46l9.76-10.28
				l-3.96-1.58v-0.79h10.02v0.79l-4.22,1.58l-6.06,6.33l10.28,16.09l2.64,0.79v0.79h-6.86c-1.69,0-3.06-0.37-4.11-1.11
				c-1.06-0.74-2.06-1.86-3.01-3.38l-4.48-7.12v10.02l3.16,0.79v0.79h-14.77V274.61z"/>
			<path class="st0" d="M421.41,272.47c-2.5-2.48-3.74-5.9-3.74-10.26c0-2.85,0.55-5.33,1.64-7.44c1.09-2.11,2.61-3.73,4.56-4.85
				c1.95-1.12,4.19-1.69,6.72-1.69c2.53,0,4.76,0.48,6.67,1.42c1.92,0.95,3.39,2.23,4.43,3.82c1.04,1.6,1.56,3.37,1.56,5.3
				c0,0.88-0.09,1.64-0.26,2.27l-0.26,0.9c-1.51,0.32-3.15,0.58-4.91,0.79c-3.69,0.53-7.42,0.79-11.18,0.79
				c0,4.08,0.56,6.99,1.69,8.73c1.12,1.74,2.67,2.61,4.64,2.61c1.37,0,2.65-0.32,3.82-0.98c1.18-0.65,2.11-1.51,2.8-2.58
				c0.69-1.07,1.03-2.17,1.03-3.3h1.32c0,1.41-0.42,2.74-1.27,4.01c-0.84,1.27-2.02,2.28-3.53,3.03c-1.51,0.76-3.25,1.13-5.22,1.13
				C427.41,276.19,423.91,274.95,421.41,272.47z M432.12,261.95c0.6-0.03,1.23-0.12,1.9-0.26c0.03-0.18,0.12-0.56,0.26-1.16
				c0.18-0.88,0.26-1.81,0.26-2.79c0-2.92-0.39-5.05-1.16-6.41c-0.77-1.35-1.71-2.03-2.79-2.03c-2.64,0-3.96,4.31-3.96,12.92
				C428.89,262.22,430.71,262.13,432.12,261.95z"/>
			<path class="st0" d="M447.2,274.61l3.16-0.79v-33.75l-3.16-0.79v-0.79h6.86c3.16,0,4.75,1.58,4.75,4.75v30.59l3.16,0.79v0.79
				H447.2V274.61z"/>
		</g>
		<g>
			<g>
				<path class="st0" d="M149.65,317.72c-1.2,0-2.31-0.2-3.34-0.6c-1.03-0.4-1.92-0.99-2.67-1.77c-0.75-0.78-1.34-1.74-1.76-2.89
					c-0.42-1.14-0.63-2.45-0.63-3.92c0-1.45,0.22-2.76,0.65-3.91c0.44-1.15,1.03-2.13,1.79-2.93c0.75-0.8,1.64-1.41,2.67-1.83
					c1.03-0.42,2.13-0.63,3.31-0.63c1.27,0,2.35,0.23,3.23,0.69c0.88,0.46,1.6,0.99,2.17,1.57l-1.69,2.04
					c-0.45-0.44-0.96-0.8-1.51-1.1c-0.55-0.3-1.25-0.45-2.09-0.45c-0.8,0-1.52,0.15-2.17,0.45c-0.65,0.3-1.2,0.73-1.66,1.28
					c-0.46,0.55-0.82,1.23-1.08,2.03c-0.26,0.8-0.38,1.7-0.38,2.7c0,2.04,0.46,3.63,1.38,4.78c0.92,1.15,2.28,1.73,4.07,1.73
					c0.51,0,0.99-0.07,1.44-0.2s0.83-0.33,1.12-0.59v-3.84h-3.38v-2.59h6.21v7.85c-0.6,0.6-1.39,1.1-2.38,1.51
					C151.97,317.52,150.86,317.72,149.65,317.72z"/>
				<path class="st0" d="M157.09,317.4l5.81-17.83h3.71l5.81,17.83h-3.33l-1.39-4.82h-6l-1.39,4.82H157.09z M163.05,307.91
					l-0.63,2.18h4.55l-0.63-2.18c-0.29-0.94-0.57-1.92-0.83-2.92c-0.26-1-0.52-1.99-0.78-2.97h-0.11c-0.25,1-0.51,1.99-0.76,2.98
					C163.62,306,163.35,306.97,163.05,307.91z"/>
				<path class="st0" d="M174.88,317.4v-17.83h6.02c0.93,0,1.79,0.09,2.59,0.27c0.8,0.18,1.49,0.48,2.07,0.89
					c0.58,0.41,1.04,0.95,1.38,1.62c0.34,0.67,0.5,1.51,0.5,2.51c0,1.36-0.32,2.46-0.97,3.3c-0.64,0.84-1.5,1.43-2.58,1.8l4.25,7.44
					h-3.54l-3.84-6.98h-2.73v6.98H174.88z M178.05,307.91h2.53c1.22,0,2.15-0.25,2.79-0.76c0.64-0.51,0.97-1.27,0.97-2.29
					c0-1.04-0.32-1.75-0.97-2.15c-0.65-0.4-1.58-0.6-2.79-0.6h-2.53V307.91z"/>
				<path class="st0" d="M191.29,317.4v-17.83h4.77c2.73,0,4.85,0.74,6.38,2.21c1.53,1.47,2.29,3.68,2.29,6.62
					c0,1.47-0.2,2.77-0.59,3.9c-0.39,1.13-0.95,2.07-1.69,2.82c-0.74,0.75-1.63,1.32-2.67,1.7c-1.04,0.38-2.23,0.57-3.56,0.57
					H191.29z M194.45,314.83h1.39c1.82,0,3.21-0.52,4.18-1.57c0.97-1.05,1.46-2.67,1.46-4.87c0-2.18-0.49-3.77-1.47-4.77
					c-0.98-1-2.37-1.5-4.17-1.5h-1.39V314.83z"/>
				<path class="st0" d="M208.6,317.4v-17.83h10.74v2.67h-7.58v4.55h6.41v2.67h-6.41v5.26h7.85v2.67H208.6z"/>
				<path class="st0" d="M223.54,317.4v-17.83h3.24l5.56,10.03l1.83,3.79h0.11c-0.07-0.93-0.16-1.92-0.26-2.99
					c-0.1-1.06-0.15-2.09-0.15-3.09v-7.74h3.02v17.83h-3.24l-5.56-10.03l-1.83-3.79h-0.11c0.07,0.94,0.16,1.94,0.26,2.97
					c0.1,1.04,0.15,2.05,0.15,3.05v7.8H223.54z"/>
				<path class="st0" d="M250.6,317.4l-5.56-17.83h3.35l2.51,8.97c0.29,1.02,0.55,1.98,0.78,2.89c0.23,0.91,0.5,1.88,0.8,2.92h0.11
					c0.31-1.04,0.58-2.01,0.8-2.92c0.23-0.91,0.48-1.87,0.75-2.89l2.48-8.97h3.24l-5.53,17.83H250.6z"/>
				<path class="st0" d="M262.29,317.4v-17.83h3.16v17.83H262.29z"/>
				<path class="st0" d="M270.25,317.4v-17.83h3.16v15.15h7.41v2.67H270.25z"/>
				<path class="st0" d="M284.21,317.4v-17.83h3.16v15.15h7.41v2.67H284.21z"/>
				<path class="st0" d="M295.84,317.4l5.81-17.83h3.71l5.81,17.83h-3.33l-1.39-4.82h-6l-1.39,4.82H295.84z M301.81,307.91
					l-0.63,2.18h4.55l-0.63-2.18c-0.29-0.94-0.57-1.92-0.83-2.92c-0.26-1-0.52-1.99-0.78-2.97h-0.11c-0.25,1-0.51,1.99-0.76,2.98
					C302.37,306,302.1,306.97,301.81,307.91z"/>
				<path class="st0" d="M318.85,317.72c-1.2,0-2.36-0.23-3.47-0.68c-1.12-0.46-2.1-1.1-2.96-1.94l1.85-2.15
					c0.64,0.6,1.36,1.09,2.18,1.46c0.82,0.37,1.63,0.56,2.45,0.56c1.02,0,1.79-0.21,2.32-0.63c0.53-0.42,0.79-0.97,0.79-1.66
					c0-0.36-0.07-0.67-0.2-0.93c-0.14-0.25-0.33-0.48-0.57-0.67c-0.25-0.19-0.54-0.37-0.87-0.53c-0.34-0.17-0.7-0.33-1.1-0.49
					L316.8,309c-0.44-0.18-0.87-0.41-1.29-0.68c-0.43-0.27-0.81-0.6-1.16-0.98c-0.35-0.38-0.62-0.83-0.83-1.33
					c-0.21-0.51-0.31-1.09-0.31-1.75c0-0.71,0.15-1.37,0.45-1.97c0.3-0.61,0.71-1.14,1.24-1.59c0.53-0.46,1.16-0.81,1.9-1.06
					c0.73-0.25,1.54-0.38,2.41-0.38c1.04,0,2.03,0.2,3,0.61c0.96,0.41,1.79,0.96,2.48,1.65l-1.61,2.02
					c-0.58-0.47-1.18-0.85-1.8-1.12c-0.62-0.27-1.31-0.41-2.07-0.41c-0.85,0-1.54,0.19-2.04,0.56c-0.51,0.37-0.76,0.89-0.76,1.54
					c0,0.35,0.08,0.64,0.23,0.89c0.15,0.24,0.36,0.46,0.63,0.65c0.26,0.19,0.57,0.36,0.91,0.52c0.34,0.15,0.7,0.3,1.06,0.45
					l2.43,1.01c0.53,0.22,1.01,0.47,1.45,0.76c0.44,0.29,0.81,0.63,1.13,1.01c0.32,0.38,0.57,0.82,0.75,1.32
					c0.18,0.5,0.27,1.08,0.27,1.73c0,0.73-0.15,1.41-0.44,2.04c-0.29,0.64-0.71,1.2-1.27,1.68c-0.55,0.48-1.23,0.86-2.02,1.14
					C320.74,317.58,319.84,317.72,318.85,317.72z"/>
			</g>
		</g>
	</g>
	<g>
		<g>
			<g>
				<path class="st0" d="M238.95,182.98c-42.72,0-77.48-34.76-77.48-77.48s34.76-77.48,77.48-77.48c42.72,0,77.48,34.76,77.48,77.48
					S281.67,182.98,238.95,182.98z M238.95,31.53c-40.79,0-73.97,33.18-73.97,73.97s33.18,73.97,73.97,73.97
					s73.97-33.18,73.97-73.97S279.74,31.53,238.95,31.53z"/>
			</g>
			<g>
				<g>
					<path class="st0" d="M238.95,173.6c-37.55,0-68.09-30.55-68.09-68.09s30.55-68.09,68.09-68.09c37.55,0,68.09,30.55,68.09,68.09
						S276.5,173.6,238.95,173.6z M238.95,40.33c-35.94,0-65.17,29.24-65.17,65.17s29.24,65.17,65.17,65.17s65.17-29.24,65.17-65.17
						S274.89,40.33,238.95,40.33z"/>
				</g>
				<g>
					<path class="st0" d="M287.52,73c-3.07-12.34-16.5-23.38-28.46-31.03c-3.04-0.96-6.18-1.71-9.39-2.23
						c12.66,7.1,31.49,19.78,35.02,33.96c2.86,11.49,2.63,32.71,2.25,44.34c-0.02,0.49,0.22,0.96,0.62,1.24l13.76,9.71
						c0.36-0.94,0.69-1.9,1-2.87l-12.43-8.77C290.26,105.42,290.4,84.57,287.52,73z"/>
					<path class="st0" d="M173.21,116.3l4.65-3.28c0.4-0.28,0.63-0.74,0.62-1.22c-0.31-16.87,0.44-29.86,2.25-38.68
						c-1.66,2.98-3.11,6.09-4.3,9.33c-0.77,7.77-1.07,17.34-0.88,28.63l-2.79,1.97C172.88,114.14,173.03,115.22,173.21,116.3z"/>
					<path class="st0" d="M299.43,111.8c-0.01,0.48,0.22,0.94,0.62,1.22l4.65,3.28c0.18-1.08,0.32-2.16,0.45-3.26l-2.79-1.97
						c0.19-11.29-0.11-20.86-0.88-28.63c-1.19-3.24-2.64-6.35-4.3-9.33C298.99,81.94,299.74,94.92,299.43,111.8z"/>
					<path class="st0" d="M273.97,48.81c8.02,6.82,14.55,14.75,16.7,23.4c2.72,10.94,2.87,29.27,2.53,42.71
						c-0.01,0.49,0.22,0.95,0.62,1.23l9.48,6.69c0.27-1.01,0.52-2.02,0.74-3.05l-7.9-5.57c0.33-13.55,0.12-31.67-2.63-42.71
						c-0.8-3.2-2.14-6.3-3.9-9.28C285.13,57,279.85,52.46,273.97,48.81z"/>
					<path class="st0" d="M205.28,159.91c-0.08-0.35-0.3-0.66-0.59-0.86c-2.72-1.86-4.98-4.32-6.36-6.93l-1.26-2.38v-2.75
						c0-0.49-0.25-0.95-0.66-1.22c-0.41-0.27-0.93-0.32-1.38-0.12l-6.88,2.96c0.66,0.78,1.34,1.55,2.04,2.3l3.95-1.7v0.9
						c0,0.24,0.06,0.47,0.17,0.68l1.43,2.7c1.52,2.87,3.93,5.57,6.83,7.65l0.05,0.22c1.15,0.75,2.33,1.46,3.53,2.14L205.28,159.91z"
						/>
					<path class="st0" d="M176.59,128.99l13.76-9.71c0.4-0.28,0.63-0.75,0.62-1.24c-0.39-11.63-0.61-32.85,2.25-44.34
						c3.53-14.19,22.39-26.88,35.02-33.96c-3.21,0.52-6.35,1.26-9.39,2.23C206.9,49.61,193.46,60.66,190.39,73
						c-2.88,11.57-2.73,32.42-2.36,44.35l-12.43,8.77C175.91,127.09,176.24,128.05,176.59,128.99z"/>
					<path class="st0" d="M174.62,122.85l9.48-6.69c0.4-0.28,0.63-0.74,0.62-1.23c-0.35-13.45-0.19-31.77,2.53-42.71
						c2.15-8.66,8.69-16.59,16.71-23.41c-5.89,3.64-11.17,8.19-15.65,13.43c-1.76,2.98-3.1,6.08-3.9,9.28
						c-2.75,11.04-2.96,29.16-2.63,42.71l-7.9,5.57C174.1,120.82,174.35,121.84,174.62,122.85z"/>
					<path class="st0" d="M249.41,131.82h-21.23c-0.81,0-1.46,0.65-1.46,1.46v6.35c0,0.81,0.65,1.46,1.46,1.46h21.23
						c0.81,0,1.46-0.65,1.46-1.46v-6.35C250.87,132.48,250.22,131.82,249.41,131.82z M247.95,138.18h-18.31v-3.43h18.31V138.18z"/>
					<path class="st0" d="M180.76,131.62l6.79,12.28c0.36,0.66,1.17,0.93,1.86,0.63l5.13-2.21c1.9-0.82,3.86-1.65,5.78-2.44v8.69
						c0,0.24,0.06,0.47,0.17,0.68l0.71,1.35c0.53,1.01,2.55,4.38,6.78,6.67l1.9,7.82c0.05,0.19,0.13,0.35,0.24,0.5
						c0.45,0.22,0.91,0.41,1.36,0.61h54.96c0.44-0.2,0.89-0.39,1.33-0.6c0.18-0.24,0.31-0.53,0.31-0.86v-6.16c0,0,0,0,0-0.01
						s0,0,0-0.01v-0.44c4.31-1.7,7.27-4.94,8.64-7.53l0.72-1.35c0.11-0.21,0.17-0.45,0.17-0.68v-8.69c1.92,0.8,3.89,1.63,5.78,2.44
						l5.13,2.21c0.69,0.3,1.49,0.02,1.85-0.63l6.79-12.28c0.36-0.65,0.17-1.47-0.44-1.9l-13.11-9.25
						c0.41-10.4,0.94-33.92-2.06-45.98c-3.68-14.78-26.96-28.54-37.16-33.93l-1.06-1.52c-1.45-0.09-2.9-0.16-4.37-0.16
						c-1.5,0-2.98,0.07-4.45,0.16l-1.04,1.55c-10.2,5.4-33.43,19.14-37.1,33.9c-3,12.06-2.47,35.58-2.06,45.98l-13.11,9.25
						C180.59,130.15,180.4,130.96,180.76,131.62z M212.44,163.28l-0.79-3.24h13.83c0.63,0,1.19-0.41,1.38-1.02
						c0.19-0.6-0.03-1.27-0.54-1.64c-0.08-0.06-1.69-1.26-2.11-4.26h29.47c-0.42,3-2.03,4.2-2.09,4.25
						c-0.53,0.36-0.76,1.02-0.58,1.64c0.19,0.61,0.75,1.03,1.4,1.03h12.74v3.24H212.44z M217.44,151.59
						c-0.04-0.77-0.68-1.38-1.46-1.38c-3.23,0-5.21-1.81-6.13-2.95h6.78c0.81,0,1.46-0.65,1.46-1.46v-18.79
						c0-0.8-0.65-1.46-1.45-1.46c0,0-0.64,0-3.23,0c-2.47,0-15.64,5.52-21.25,7.92l-0.14-0.26l10.94-7.72
						c0.41-0.29,0.64-0.77,0.62-1.27c-0.02-0.33-1.83-33.69,1.61-47.53c3.05-12.28,29.11-26.29,33.77-28.72
						c4.67,2.42,30.72,16.44,33.77,28.72c3.44,13.83,1.63,47.19,1.61,47.53c-0.03,0.5,0.21,0.98,0.62,1.27l10.94,7.72l-0.14,0.26
						c-5.61-2.4-18.78-7.91-21.25-7.92c-2.59,0-3.23,0-3.23,0c-0.8,0-1.45,0.66-1.45,1.46v18.79c0,0.81,0.65,1.46,1.46,1.46h6.78
						c-0.93,1.14-2.9,2.95-6.13,2.95c-0.4,0-0.77,0.16-1.05,0.44c-0.27,0.28-0.42,0.67-0.41,1.06c0.05,1.57,0.44,3.7,1.41,5.41
						h-6.44c0.68-1.29,1.26-3.08,1.26-5.46c0-0.81-0.65-1.46-1.46-1.46h-32.59c-0.81,0-1.46,0.65-1.46,1.46
						c0,2.38,0.58,4.17,1.26,5.46h-7.03C217.56,154.5,217.45,151.74,217.44,151.59z M196.64,122.4c0.41-0.29,0.64-0.76,0.62-1.25
						c-0.41-9.82-1.04-33.94,1.94-45.95c3.52-14.17,28.41-28.22,35.95-32.2c0.21-0.11,0.4-0.28,0.53-0.48l1.55-2.31l1.04,0.52
						c0.41,0.21,0.9,0.21,1.32-0.01l1-0.51l1.61,2.31c0.13,0.19,0.31,0.35,0.52,0.46c7.55,3.97,32.47,18.04,36,32.22
						c2.99,12.01,2.35,36.13,1.94,45.95c-0.02,0.5,0.21,0.97,0.62,1.25l12.69,8.95l-5.52,9.98l-3.92-1.69
						c-6.09-2.62-12.6-5.26-16.59-6.73c-0.45-0.16-0.95-0.1-1.34,0.17c-0.39,0.27-0.62,0.72-0.62,1.2v5.35
						c0,0.81,0.65,1.46,1.46,1.46h7.23v7.11l-0.55,1.03c-1.15,2.18-3.93,5.18-7.96,6.48c-0.44,0.14-0.78,0.48-0.93,0.91
						c-1-0.81-1.48-2.43-1.69-3.61c5.26-0.77,7.6-5.08,7.71-5.28c0.11-0.21,0.17-0.44,0.17-0.68v-1.24c0-0.81-0.65-1.46-1.46-1.46
						h-7.23v-15.87c0.45,0,1.03,0,1.76,0c1.54,0.05,12.04,4.21,21.32,8.2c0.69,0.3,1.49,0.02,1.85-0.63l1.42-2.56
						c0.36-0.65,0.17-1.47-0.44-1.9l-11.35-8.01c0.27-5.35,1.55-34.39-1.74-47.59c-3.34-13.44-29.37-27.56-35.39-30.67
						c-0.24-0.26-0.58-0.41-0.95-0.45c-0.54-0.15-1.13,0.02-1.5,0.45c-6.03,3.11-32.04,17.23-35.38,30.67
						c-3.28,13.2-2.01,42.24-1.74,47.59l-11.35,8.01c-0.61,0.43-0.8,1.25-0.44,1.9l1.42,2.56c0.36,0.66,1.17,0.93,1.86,0.63
						c9.27-3.99,19.78-8.15,21.31-8.2c0.73,0,1.31,0,1.76,0v15.87h-7.23c-0.81,0-1.46,0.65-1.46,1.46v1.24
						c0,0.24,0.06,0.47,0.17,0.68c0.11,0.2,2.44,4.51,7.7,5.28c-0.31,1.14-1.16,2.82-3.4,4.09l-0.28-1.17
						c-0.1-0.42-0.39-0.78-0.78-0.97c-3.06-1.5-5.16-3.94-6.1-5.73l-0.55-1.03v-7.11h7.23c0.81,0,1.46-0.65,1.46-1.46v-5.35
						c0-0.48-0.23-0.92-0.62-1.2c-0.39-0.27-0.89-0.34-1.34-0.17c-4,1.47-10.51,4.11-16.59,6.73l-3.91,1.69l-5.52-9.98L196.64,122.4
						z M273.42,138.18h-4.52v-1.78C270.25,136.91,271.78,137.52,273.42,138.18z M204.49,138.18c1.64-0.66,3.17-1.26,4.52-1.78v1.78
						H204.49z"/>
					<path class="st0" d="M220.21,169.45c5.95,1.74,12.23,2.69,18.74,2.69s12.79-0.95,18.74-2.69H220.21z"/>
					<path class="st0" d="M282.87,145.64c-0.45-0.19-0.97-0.15-1.38,0.12c-0.41,0.27-0.66,0.73-0.66,1.22v2.75l-1.26,2.38
						c-1.56,2.95-4.38,5.82-7.54,7.68c-0.45,0.26-0.72,0.74-0.72,1.26v2.69c0.99-0.55,1.96-1.13,2.92-1.73v-0.15
						c3.35-2.14,6.21-5.16,7.92-8.39l1.43-2.7c0.11-0.21,0.17-0.44,0.17-0.68v-0.9l3.95,1.7c0.7-0.75,1.38-1.52,2.04-2.3
						L282.87,145.64z"/>
					<path class="st0" d="M222.02,147.26h33.56c0.81,0,1.46-0.65,1.46-1.46v-18.68c0-0.81-0.65-1.46-1.46-1.46h-33.56
						c-0.81,0-1.46,0.65-1.46,1.46v18.68C220.56,146.6,221.21,147.26,222.02,147.26z M223.48,128.58h30.64v15.76h-30.64V128.58z"/>
					<path class="st0" d="M239.98,88.35h-2.59c-0.81,0-1.46,0.65-1.46,1.46v19.78c0,0.81,0.65,1.46,1.46,1.46h2.59
						c0.81,0,1.46-0.65,1.46-1.46V89.81C241.44,89,240.79,88.35,239.98,88.35z"/>
					<path class="st0" d="M242.56,156.37h-7.2c-0.64,0-1.21,0.42-1.4,1.03c-0.19,0.61,0.05,1.28,0.58,1.64l3.6,2.44
						c0.25,0.17,0.53,0.25,0.82,0.25c0.29,0,0.57-0.08,0.82-0.25l3.6-2.44c0.53-0.36,0.76-1.02,0.58-1.64
						C243.76,156.78,243.2,156.37,242.56,156.37z"/>
					<path class="st0" d="M231.23,117.21h14.91c0.81,0,1.46-0.65,1.46-1.46V83.65c0-0.81-0.65-1.46-1.46-1.46h-14.91
						c-0.81,0-1.46,0.65-1.46,1.46v32.11C229.77,116.56,230.42,117.21,231.23,117.21z M232.69,85.11h11.99v29.19h-11.99V85.11z"/>
				</g>
			</g>
		</g>
	</g>
</g>
</svg>
