<?xml version="1.0" encoding="utf-8"?>
<!-- Generator: Adobe Illustrator 26.0.2, SVG Export Plug-In . SVG Version: 6.00 Build 0)  -->
<svg version="1.1" id="Layer_1" xmlns="http://www.w3.org/2000/svg" xmlns:xlink="http://www.w3.org/1999/xlink" x="0px" y="0px"
	 viewBox="0 0 534.8 122.5" style="enable-background:new 0 0 534.8 122.5;" xml:space="preserve">
<g>
	<g>
		<g>
			<path d="M135,72.6l2.8-0.7V42.4l-2.8-0.7V41h11.8c5.5,0,9.7,1.4,12.7,4.2c2.9,2.8,4.4,6.8,4.4,11.9c0,5.1-1.5,9.1-4.4,11.9
				c-2.9,2.8-7.2,4.2-12.7,4.2H135V72.6z M146.8,72.2c2.9,0,5.1-1.2,6.7-3.5c1.6-2.3,2.4-6.2,2.4-11.5s-0.8-9.2-2.4-11.5
				c-1.6-2.3-3.8-3.5-6.7-3.5h-1.4v30C145.4,72.2,146.8,72.2,146.8,72.2z"/>
			<path d="M170.9,70.8c-2.2-2.2-3.3-5.2-3.3-9c0-2.5,0.5-4.7,1.4-6.5c0.9-1.8,2.3-3.3,4-4.2c1.7-1,3.7-1.5,5.9-1.5s4.2,0.4,5.9,1.2
				c1.7,0.8,3,2,3.9,3.3c0.9,1.4,1.4,3,1.4,4.7c0,0.8-0.1,1.4-0.2,2l-0.2,0.8c-1.3,0.3-2.8,0.5-4.3,0.7c-3.2,0.5-6.5,0.7-9.8,0.7
				c0,3.6,0.5,6.1,1.5,7.6c1,1.5,2.3,2.3,4.1,2.3c1.2,0,2.3-0.3,3.4-0.9c1-0.6,1.9-1.3,2.4-2.3c0.6-0.9,0.9-1.9,0.9-2.9h1.2
				c0,1.2-0.4,2.4-1.1,3.5s-1.8,2-3.1,2.7c-1.3,0.7-2.9,1-4.6,1C176.1,74,173,72.9,170.9,70.8z M180.2,61.6c0.5,0,1.1-0.1,1.7-0.2
				c0-0.2,0.1-0.5,0.2-1c0.1-0.8,0.2-1.6,0.2-2.5c0-2.6-0.3-4.4-1-5.6c-0.7-1.2-1.5-1.8-2.4-1.8c-2.3,0-3.5,3.8-3.5,11.3
				C177.4,61.8,179,61.7,180.2,61.6z"/>
			<path d="M194.8,51.8c0.6-0.2,1.3-0.6,1.9-1.1c1.3-1,2.1-2.3,2.4-4l-0.6,0.4c-0.4,0.2-0.9,0.3-1.5,0.3c-0.9,0-1.7-0.3-2.4-1
				c-0.7-0.7-1-1.5-1-2.4c0-0.9,0.4-1.7,1-2.4c0.7-0.7,1.5-1,2.4-1c1.1,0,2,0.4,2.7,1.1c0.7,0.8,1,1.8,1,3c0,2.8-0.9,5-2.8,6.7
				c-0.8,0.7-1.7,1.3-2.8,1.7L194.8,51.8z"/>
			<path d="M205.2,72.6L208,72V42.4l-2.8-0.7V41h12.5c4.7,0,8.1,0.8,10.3,2.2s3.3,3.4,3.3,5.8c0,1.7-0.5,3-1.4,4
				c-1,1-2.2,1.8-3.6,2.3c-1.6,0.5-3.3,0.8-5.1,0.9v0.2c2.2,0.1,4.2,0.4,5.9,1c1.7,0.5,3.1,1.4,4.2,2.6c1.1,1.2,1.7,2.7,1.7,4.5
				c0,2.7-1.1,4.9-3.4,6.4s-5.9,2.3-10.9,2.3h-13.4L205.2,72.6L205.2,72.6z M217.7,55.8c1,0,2-0.3,2.8-0.9c0.9-0.6,1.6-1.4,2.1-2.4
				c0.5-1,0.8-2.2,0.8-3.4c0-1.4-0.3-2.6-0.8-3.6s-1.2-1.9-2.1-2.5c-0.9-0.6-1.8-0.9-2.8-0.9h-2.1v13.6L217.7,55.8L217.7,55.8z
				 M218.6,72.2c1.9,0,3.5-0.7,4.7-2s1.8-3.2,1.8-5.6c0-2.4-0.6-4.2-1.8-5.6c-1.2-1.3-2.8-2-4.7-2h-3v15.3L218.6,72.2L218.6,72.2z"
				/>
			<path d="M239.5,70.8c-2.2-2.2-3.3-5.2-3.3-9c0-2.5,0.5-4.7,1.4-6.5c0.9-1.8,2.3-3.3,4-4.2c1.7-1,3.7-1.5,5.9-1.5s4.2,0.4,5.9,1.2
				c1.7,0.8,3,2,3.9,3.3c0.9,1.4,1.4,3,1.4,4.7c0,0.8-0.1,1.4-0.2,2l-0.2,0.8c-1.3,0.3-2.8,0.5-4.3,0.7c-3.2,0.5-6.5,0.7-9.8,0.7
				c0,3.6,0.5,6.1,1.5,7.6c1,1.5,2.3,2.3,4.1,2.3c1.2,0,2.3-0.3,3.4-0.9c1-0.6,1.9-1.3,2.4-2.3c0.6-0.9,0.9-1.9,0.9-2.9h1.2
				c0,1.2-0.4,2.4-1.1,3.5c-0.7,1.1-1.8,2-3.1,2.7c-1.3,0.7-2.9,1-4.6,1C244.7,74,241.7,72.9,239.5,70.8z M248.9,61.6
				c0.5,0,1.1-0.1,1.7-0.2c0-0.2,0.1-0.5,0.2-1c0.1-0.8,0.2-1.6,0.2-2.5c0-2.6-0.3-4.4-1-5.6c-0.7-1.2-1.5-1.8-2.4-1.8
				c-2.3,0-3.5,3.8-3.5,11.3C246,61.8,247.6,61.7,248.9,61.6z"/>
			<path d="M262.1,72.6l2.8-0.7V51.6l-2.8-0.7v-0.7h4.2c1.8,0,3.2,0.6,4.3,1.8c0.4,0.5,0.7,1,1,1.7c0.4-0.8,0.9-1.5,1.5-2.1
				c1.4-1.4,3.1-2.1,5.2-2.1c1.7,0,3.3,0.4,4.6,1.1c1.4,0.7,2.4,1.7,3.2,2.8c0.8,1.2,1.2,2.4,1.2,3.7V72l2.8,0.7v0.7h-6
				c-2.8,0-4.2-1.4-4.2-4.2v-12c0-1.9-0.4-3.4-1-4.5s-1.5-1.5-2.4-1.5c-1.2,0-2.2,0.6-3.1,1.8c-0.4,0.5-0.7,1.1-1,1.8V72l2.8,0.7
				v0.7h-12.9L262.1,72.6L262.1,72.6z"/>
			<path d="M295.5,72.3c-1.5-1.2-2.2-2.7-2.2-4.5c0-1.2,0.3-2.4,0.8-3.6c0.2-0.5,0.5-1.1,0.8-1.5c1.3-0.3,2.6-0.6,4.1-0.8
				c3.3-0.5,6.3-0.9,8.8-1v-1.4c0-3.4-0.4-5.8-1.2-7.1s-2.1-1.9-3.8-1.9c-0.6,0-1.2,0.1-1.7,0.2l-0.6,0.2v6.9l-0.6,0.1
				c-0.5,0.1-0.9,0.1-1.2,0.1c-1,0-1.9-0.3-2.5-1c-0.6-0.6-1-1.5-1-2.5c0-1.4,0.7-2.6,2.1-3.6c1.4-1,3.6-1.5,6.4-1.5
				c2.4,0,4.5,0.4,6.2,1.3c1.7,0.8,3.1,2,4,3.5c0.9,1.5,1.4,3.2,1.4,5.2v12.5l2.8,0.7v0.7h-4.2c-1.9,0-3.3-0.6-4.3-1.7
				c-0.4-0.5-0.8-1.1-1-1.8c-0.4,0.8-0.9,1.5-1.5,2.1c-1.4,1.4-3.1,2.1-5.2,2.1C299.1,74,297,73.4,295.5,72.3z M306.8,70.6
				c0.3-0.5,0.7-1.1,1.1-1.8V62c-1.4,0-2.8,0.1-4.1,0.2c-1,0.1-1.6,0.2-1.9,0.2c-0.1,0.3-0.3,0.8-0.5,1.4c-0.3,1.2-0.5,2.3-0.5,3.5
				c0,1.7,0.3,3,0.8,3.8c0.5,0.8,1.2,1.2,2,1.2C304.8,72.4,305.9,71.8,306.8,70.6z"/>
			<path d="M320.8,72.6l2.8-0.7V51.6l-2.8-0.7v-0.7h4.2c1.8,0,3.2,0.6,4.3,1.8c0.4,0.5,0.7,1,1,1.7c0.4-0.8,0.9-1.5,1.5-2.1
				c1.4-1.4,3.1-2.1,5.2-2.1c1.7,0,3.3,0.4,4.6,1.1c1.4,0.7,2.4,1.7,3.2,2.8c0.8,1.2,1.2,2.4,1.2,3.7V72l2.8,0.7v0.7h-6
				c-2.8,0-4.2-1.4-4.2-4.2v-12c0-1.9-0.4-3.4-1-4.5s-1.5-1.5-2.4-1.5c-1.2,0-2.2,0.6-3.1,1.8c-0.4,0.5-0.7,1.1-1,1.8V72l2.8,0.7
				v0.7h-12.9L320.8,72.6L320.8,72.6z"/>
			<path d="M355.7,82.5c-1.7-0.5-3-1.1-3.7-1.9c-0.8-0.8-1.1-1.6-1.1-2.4c0-1.1,0.3-1.9,1-2.5c0.6-0.6,1.5-0.9,2.5-0.9
				c0.2,0,0.7,0.1,1.3,0.1l0.5,0.1v6.5c0.4,0.1,1,0.3,1.8,0.5c1.4,0.3,2.8,0.5,4,0.5c3.8,0,6.5-0.5,8.2-1.6c1.7-1.1,2.6-2.4,2.6-3.9
				c0-2-1.9-3-5.5-3h-8.8c-2.3,0-4.1-0.5-5.3-1.4c-1.2-0.9-1.9-2.2-1.9-3.7s0.7-2.8,2.2-3.9c0.6-0.4,1.3-0.8,2.2-1.2
				c-1.1-0.7-2-1.5-2.5-2.5s-0.8-2.1-0.8-3.5c0-2.3,0.9-4.1,2.6-5.5s4.2-2.1,7.6-2.1c1.5,0,2.8,0.2,4,0.4c1.2,0.3,2.2,0.7,2.9,1.2
				c0.2-0.5,0.6-1,1-1.4c0.9-0.9,2.1-1.4,3.4-1.4c1,0,1.9,0.4,2.6,1.1c0.7,0.7,1.1,1.7,1.1,2.8c0,0.9-0.2,1.6-0.7,2.2
				s-1.1,0.8-1.8,0.8c-0.3,0-0.7,0-1.2-0.1l-0.5-0.1V50c-0.8,0-1.6,0.4-2.3,1.2c-0.3,0.3-0.5,0.7-0.7,1.2c1.5,1.4,2.3,3.1,2.3,5.3
				c0,2.3-0.9,4.1-2.6,5.5c-1.7,1.4-4.2,2.1-7.6,2.1c-2.2,0-4.2-0.4-6-1.2l-0.9,0.5c-0.3,0.2-0.5,0.4-0.7,0.5
				c-0.2,0.2-0.2,0.4-0.2,0.6c0,0.5,0.3,0.9,0.8,1.2s1.5,0.4,2.9,0.4h8.8c2.3,0,4.1,0.7,5.4,2c1.3,1.3,2,3.2,2,5.6
				c0,2.5-1,4.5-3.1,6c-2,1.5-5.1,2.3-9.2,2.3C359.6,83.3,357.4,83,355.7,82.5z M365,62.9c0.6-1,0.9-2.7,0.9-5.2
				c0-2.5-0.3-4.2-0.9-5.2c-0.6-1-1.4-1.5-2.4-1.5c-1,0-1.8,0.5-2.4,1.5c-0.6,1-0.9,2.7-0.9,5.2c0,2.5,0.3,4.2,0.9,5.2
				c0.6,1,1.4,1.5,2.4,1.5C363.6,64.3,364.4,63.8,365,62.9z"/>
			<path d="M398.1,72.6c-0.9-0.4-1.6-0.9-2.2-1.5c-0.4,0.7-1,1.3-1.6,1.9c-0.6,0.4-0.9,0.6-0.9,0.7h-1.2v-8.8h1.9
				c0.5,1.5,1.1,2.9,1.9,4.1c1.9,2.7,4.3,4,7.3,4c1.8,0,3.2-0.5,4.2-1.6s1.6-2.4,1.6-4.2c0-1-0.3-1.9-0.9-2.7
				c-0.6-0.8-1.4-1.5-2.2-2.1c-0.9-0.6-2.1-1.4-3.7-2.3c-2-1.1-3.7-2.2-5-3.1c-1.3-0.9-2.3-2.1-3.2-3.5c-0.9-1.4-1.3-3.1-1.3-5
				c0-1.5,0.4-2.9,1.3-4.1c0.9-1.2,2.1-2.2,3.8-2.9c1.7-0.7,3.8-1.1,6.2-1.1c1.8,0,3.6,0.5,5.4,1.5c0.7,0.4,1.4,0.9,2,1.5
				c0.5-0.8,1.1-1.4,1.6-1.9c0.6-0.4,0.9-0.6,0.9-0.7h1.2v8.8h-1.9c-0.4-1.5-1-2.8-1.8-4c-0.7-1.2-1.7-2.1-2.8-2.9s-2.4-1.2-3.8-1.2
				c-1.2,0-2.2,0.5-3.1,1.4c-0.9,1-1.3,2.2-1.3,3.7c0,1.1,0.3,2.2,1,3.1s1.5,1.7,2.5,2.4s2.3,1.5,4,2.5c1.9,1.1,3.5,2.1,4.7,3
				c1.2,0.9,2.2,1.9,3,3.2s1.2,2.8,1.2,4.4c0,1.7-0.5,3.2-1.4,4.6c-1,1.4-2.4,2.5-4.3,3.3c-1.9,0.8-4.2,1.2-7,1.2
				C402,74,400,73.5,398.1,72.6z"/>
			<path d="M426.6,72.9c-1.5-0.7-2.6-1.8-3.4-3.1s-1.2-2.8-1.2-4.4V51.4h-3.2v-1.2h3.2v-2.3c0-2.8,1.4-4.2,4.2-4.2h3.2v6.5h6.5v1.2
				h-6.5v14.1c0,2.8,0.3,4.8,0.9,5.8c0.6,1.1,1.5,1.6,2.6,1.6c1.1,0,2.1-0.5,2.9-1.6s1.2-2.5,1.2-4.4h1.2c0,2.3-0.6,4-1.7,5.3
				c-1.1,1.2-2.6,1.9-4.5,1.9C429.9,74,428.1,73.7,426.6,72.9z"/>
			<path d="M444,70.8c-2.2-2.2-3.3-5.2-3.3-9s1.1-6.8,3.3-9s5.2-3.3,9-3.3c3.8,0,6.8,1.1,9,3.3c2.2,2.2,3.3,5.2,3.3,9
				s-1.1,6.8-3.3,9s-5.2,3.3-9,3.3S446.1,72.9,444,70.8z M456.1,70.5c0.9-1.7,1.3-4.6,1.3-8.7s-0.4-7-1.3-8.7
				c-0.9-1.7-1.9-2.6-3.1-2.6s-2.3,0.9-3.1,2.6s-1.3,4.6-1.3,8.7s0.4,7,1.3,8.7c0.9,1.7,1.9,2.6,3.1,2.6S455.2,72.2,456.1,70.5z"/>
			<path d="M468.9,72.6l2.8-0.7V42.4l-2.8-0.7V41h6c2.8,0,4.2,1.4,4.2,4.2v16.2l8.5-9l-3.5-1.4v-0.7h8.8v0.7l-3.7,1.4l-5.3,5.5
				l9,14.1l2.3,0.7v0.7h-6c-1.5,0-2.7-0.3-3.6-1c-0.9-0.7-1.8-1.6-2.6-3l-3.9-6.2V72l2.8,0.7v0.7h-12.9L468.9,72.6L468.9,72.6z"/>
			<path d="M499,70.8c-2.2-2.2-3.3-5.2-3.3-9c0-2.5,0.5-4.7,1.4-6.5c1-1.8,2.3-3.3,4-4.2c1.7-1,3.7-1.5,5.9-1.5s4.2,0.4,5.9,1.2
				s3,2,3.9,3.3c0.9,1.4,1.4,3,1.4,4.7c0,0.8-0.1,1.4-0.2,2l-0.2,0.8c-1.3,0.3-2.8,0.5-4.3,0.7c-3.2,0.5-6.5,0.7-9.8,0.7
				c0,3.6,0.5,6.1,1.5,7.6c1,1.5,2.3,2.3,4.1,2.3c1.2,0,2.3-0.3,3.4-0.9c1-0.6,1.8-1.3,2.5-2.3c0.6-0.9,0.9-1.9,0.9-2.9h1.2
				c0,1.2-0.4,2.4-1.1,3.5s-1.8,2-3.1,2.7c-1.3,0.7-2.9,1-4.6,1C504.2,74,501.2,72.9,499,70.8z M508.4,61.6c0.5,0,1.1-0.1,1.7-0.2
				c0-0.2,0.1-0.5,0.2-1c0.1-0.8,0.2-1.6,0.2-2.5c0-2.6-0.3-4.4-1-5.6s-1.5-1.8-2.5-1.8c-2.3,0-3.5,3.8-3.5,11.3
				C505.5,61.8,507.1,61.7,508.4,61.6z"/>
			<path d="M521.6,72.6l2.8-0.7V42.4l-2.8-0.7V41h6c2.8,0,4.2,1.4,4.2,4.2V72l2.8,0.7v0.7h-12.9V72.6z"/>
		</g>
		<g>
			<g>
				<path d="M141.1,110.4c-1.1,0-2-0.2-2.9-0.5c-0.9-0.3-1.7-0.9-2.3-1.6s-1.2-1.5-1.5-2.5s-0.6-2.2-0.6-3.4c0-1.3,0.2-2.4,0.6-3.4
					s0.9-1.9,1.6-2.6s1.4-1.2,2.3-1.6c0.9-0.4,1.9-0.6,2.9-0.6c1.1,0,2.1,0.2,2.8,0.6s1.4,0.9,1.9,1.4l-1.5,1.8
					c-0.4-0.4-0.8-0.7-1.3-1c-0.5-0.3-1.1-0.4-1.8-0.4c-0.7,0-1.3,0.1-1.9,0.4c-0.6,0.3-1.1,0.6-1.5,1.1c-0.4,0.5-0.7,1.1-0.9,1.8
					s-0.3,1.5-0.3,2.4c0,1.8,0.4,3.2,1.2,4.2s2,1.5,3.6,1.5c0.4,0,0.9-0.1,1.3-0.2c0.4-0.1,0.7-0.3,1-0.5v-3.4h-3v-2.3h5.4v6.9
					c-0.5,0.5-1.2,1-2.1,1.3C143.1,110.3,142.1,110.4,141.1,110.4z"/>
				<path d="M147.6,110.1l5.1-15.6h3.2l5.1,15.6h-2.9l-1.2-4.2h-5.3l-1.2,4.2H147.6z M152.8,101.8l-0.6,1.9h4l-0.6-1.9
					c-0.2-0.8-0.5-1.7-0.7-2.6c-0.2-0.9-0.5-1.7-0.7-2.6h-0.1c-0.2,0.9-0.4,1.8-0.7,2.6C153.3,100.2,153.1,101,152.8,101.8z"/>
				<path d="M163.2,110.1V94.5h5.3c0.8,0,1.6,0.1,2.3,0.2c0.7,0.2,1.3,0.4,1.8,0.8c0.5,0.4,0.9,0.8,1.2,1.4c0.3,0.6,0.4,1.3,0.4,2.2
					c0,1.2-0.3,2.2-0.9,2.9c-0.6,0.7-1.3,1.3-2.3,1.6l3.7,6.5h-3.1l-3.4-6.1H166v6.1L163.2,110.1L163.2,110.1z M166,101.8h2.2
					c1.1,0,1.9-0.2,2.4-0.7c0.6-0.4,0.9-1.1,0.9-2c0-0.9-0.3-1.5-0.9-1.9s-1.4-0.5-2.4-0.5H166V101.8z"/>
				<path d="M177.6,110.1V94.5h4.2c2.4,0,4.2,0.7,5.6,1.9c1.3,1.3,2,3.2,2,5.8c0,1.3-0.2,2.4-0.5,3.4s-0.8,1.8-1.5,2.5
					c-0.6,0.7-1.4,1.2-2.3,1.5c-0.9,0.3-2,0.5-3.1,0.5L177.6,110.1L177.6,110.1z M180.4,107.9h1.2c1.6,0,2.8-0.5,3.7-1.4
					c0.9-0.9,1.3-2.3,1.3-4.3c0-1.9-0.4-3.3-1.3-4.2s-2.1-1.3-3.6-1.3h-1.2L180.4,107.9L180.4,107.9z"/>
				<path d="M192.7,110.1V94.5h9.4v2.3h-6.6v4h5.6v2.3h-5.6v4.6h6.9v2.3L192.7,110.1L192.7,110.1z"/>
				<path d="M205.8,110.1V94.5h2.8l4.9,8.8l1.6,3.3h0.1c-0.1-0.8-0.1-1.7-0.2-2.6s-0.1-1.8-0.1-2.7v-6.8h2.6v15.6h-2.8l-4.9-8.8
					l-1.6-3.3h-0.1c0.1,0.8,0.1,1.7,0.2,2.6c0.1,0.9,0.1,1.8,0.1,2.7v6.8L205.8,110.1L205.8,110.1z"/>
				<path d="M229.6,110.1l-4.9-15.6h2.9l2.2,7.9c0.2,0.9,0.5,1.7,0.7,2.5s0.4,1.7,0.7,2.6h0.1c0.3-0.9,0.5-1.8,0.7-2.6
					c0.2-0.8,0.4-1.6,0.7-2.5l2.2-7.9h2.8l-4.9,15.6H229.6z"/>
				<path d="M239.8,110.1V94.5h2.8v15.6H239.8z"/>
				<path d="M246.8,110.1V94.5h2.8v13.3h6.5v2.3C256,110.1,246.8,110.1,246.8,110.1z"/>
				<path d="M259,110.1V94.5h2.8v13.3h6.5v2.3C268.3,110.1,259,110.1,259,110.1z"/>
				<path d="M269.2,110.1l5.1-15.6h3.2l5.1,15.6h-2.9l-1.2-4.2h-5.3l-1.2,4.2H269.2z M274.4,101.8l-0.5,1.9h4l-0.5-1.9
					c-0.2-0.8-0.5-1.7-0.7-2.6c-0.2-0.9-0.5-1.7-0.7-2.6h-0.1c-0.2,0.9-0.5,1.8-0.7,2.6C274.9,100.2,274.7,101,274.4,101.8z"/>
				<path d="M289.4,110.4c-1,0-2.1-0.2-3-0.6c-1-0.4-1.8-1-2.6-1.7l1.6-1.9c0.6,0.5,1.2,0.9,1.9,1.3s1.4,0.5,2.1,0.5
					c0.9,0,1.6-0.2,2-0.6s0.7-0.8,0.7-1.5c0-0.3-0.1-0.6-0.2-0.8s-0.3-0.4-0.5-0.6s-0.5-0.3-0.8-0.5c-0.3-0.1-0.6-0.3-1-0.4
					l-2.1-0.9c-0.4-0.2-0.8-0.4-1.1-0.6c-0.4-0.2-0.7-0.5-1-0.9c-0.3-0.3-0.5-0.7-0.7-1.2c-0.2-0.4-0.3-1-0.3-1.5
					c0-0.6,0.1-1.2,0.4-1.7c0.3-0.5,0.6-1,1.1-1.4c0.5-0.4,1-0.7,1.7-0.9c0.6-0.2,1.4-0.3,2.1-0.3c0.9,0,1.8,0.2,2.6,0.5
					s1.6,0.8,2.2,1.4L293,98c-0.5-0.4-1-0.7-1.6-1c-0.5-0.2-1.1-0.4-1.8-0.4c-0.8,0-1.4,0.2-1.8,0.5c-0.5,0.3-0.7,0.8-0.7,1.3
					c0,0.3,0.1,0.6,0.2,0.8s0.3,0.4,0.5,0.6c0.2,0.2,0.5,0.3,0.8,0.4c0.3,0.1,0.6,0.3,0.9,0.4l2.1,0.9c0.5,0.2,0.9,0.4,1.3,0.7
					c0.4,0.2,0.7,0.6,1,0.9c0.3,0.3,0.5,0.7,0.7,1.2s0.2,0.9,0.2,1.5c0,0.6-0.1,1.2-0.4,1.8s-0.6,1.1-1.1,1.5s-1.1,0.8-1.8,1
					C291,110.3,290.2,110.4,289.4,110.4z"/>
			</g>
		</g>
	</g>
	<g>
		<g>
			<path d="M58.9,119.9c-32.4,0-58.7-26.3-58.7-58.7S26.6,2.5,58.9,2.5s58.7,26.3,58.7,58.7S91.3,119.9,58.9,119.9z M58.9,5.2
				c-30.9,0-56,25.1-56,56.1s25.1,56,56,56s56-25.1,56-56S89.8,5.2,58.9,5.2z"/>
		</g>
		<g>
			<g>
				<path d="M58.9,112.8c-28.5,0-51.6-23.1-51.6-51.6S30.5,9.7,58.9,9.7c28.5,0,51.6,23.1,51.6,51.6S87.4,112.8,58.9,112.8z
					 M58.9,11.9C31.7,11.9,9.6,34,9.6,61.2s22.1,49.4,49.4,49.4s49.4-22.2,49.4-49.4S86.2,11.9,58.9,11.9z"/>
			</g>
			<g>
				<path d="M95.7,36.6c-2.3-9.4-12.5-17.7-21.6-23.5c-2.3-0.7-4.7-1.3-7.1-1.7c9.6,5.4,23.9,15,26.5,25.7c2.2,8.7,2,24.8,1.7,33.6
					c0,0.4,0.2,0.7,0.5,0.9l10.4,7.3c0.3-0.7,0.5-1.4,0.8-2.2l-9.4-6.7C97.8,61.2,97.9,45.4,95.7,36.6z"/>
				<path d="M9.1,69.4l3.5-2.5c0.3-0.2,0.5-0.6,0.5-0.9c-0.2-12.8,0.3-22.6,1.7-29.3c-1.3,2.3-2.4,4.6-3.3,7.1
					c-0.6,5.9-0.8,13.1-0.7,21.7L8.8,67C8.9,67.8,9,68.6,9.1,69.4z"/>
				<path d="M104.8,66c0,0.4,0.2,0.7,0.5,0.9l3.5,2.5c0.1-0.8,0.2-1.6,0.3-2.5l-2.1-1.5c0.1-8.5-0.1-15.8-0.7-21.7
					c-0.9-2.5-2-4.8-3.3-7.1C104.4,43.4,105,53.2,104.8,66z"/>
				<path d="M85.5,18.3c6.1,5.2,11,11.2,12.7,17.7c2.1,8.3,2.2,22.2,1.9,32.4c0,0.4,0.2,0.7,0.5,0.9l7.2,5.1
					c0.2-0.8,0.4-1.5,0.6-2.3l-6-4.2c0.2-10.3,0.1-24-2-32.4c-0.6-2.4-1.6-4.8-2.9-7C93.9,24.5,89.9,21.1,85.5,18.3z"/>
				<path d="M33.4,102.5c-0.1-0.3-0.2-0.5-0.5-0.7c-2.1-1.4-3.8-3.3-4.8-5.2l-1-1.8v-2.1c0-0.4-0.2-0.7-0.5-0.9s-0.7-0.2-1-0.1
					l-5.2,2.2c0.5,0.6,1,1.2,1.5,1.7l3-1.3V95c0,0.2,0,0.4,0.1,0.5l1.1,2c1.1,2.2,3,4.2,5.2,5.8l0,0.2c0.9,0.6,1.8,1.1,2.7,1.6
					L33.4,102.5z"/>
				<path d="M11.7,79l10.4-7.3c0.3-0.2,0.5-0.6,0.5-0.9c-0.3-8.8-0.5-24.9,1.7-33.6c2.7-10.8,17-20.4,26.5-25.7
					c-2.4,0.4-4.8,1-7.1,1.7c-9,5.8-19.2,14.2-21.6,23.5c-2.2,8.8-2.1,24.6-1.8,33.6l-9.4,6.7C11.2,77.6,11.4,78.3,11.7,79z"/>
				<path d="M10.2,74.4l7.2-5.1c0.3-0.2,0.5-0.6,0.5-0.9c-0.3-10.2-0.1-24.1,1.9-32.4c1.6-6.6,6.6-12.6,12.7-17.7
					C28,21,24,24.5,20.6,28.5c-1.3,2.3-2.4,4.6-3,7c-2.1,8.4-2.2,22.1-2,32.4l-6,4.2C9.8,72.8,10,73.6,10.2,74.4z"/>
				<path d="M66.9,81.2H50.8c-0.6,0-1.1,0.5-1.1,1.1v4.8c0,0.6,0.5,1.1,1.1,1.1h16.1c0.6,0,1.1-0.5,1.1-1.1v-4.8
					C68,81.7,67.5,81.2,66.9,81.2z M65.8,86H51.9v-2.6h13.9V86z"/>
				<path d="M14.9,81l5.1,9.3c0.3,0.5,0.9,0.7,1.4,0.5l3.9-1.7c1.4-0.6,2.9-1.2,4.4-1.8v6.6c0,0.2,0,0.4,0.1,0.5l0.5,1
					c0.4,0.8,1.9,3.3,5.1,5.1l1.4,5.9c0,0.1,0.1,0.3,0.2,0.4c0.3,0.2,0.7,0.3,1,0.5h41.6c0.3-0.2,0.7-0.3,1-0.5
					c0.1-0.2,0.2-0.4,0.2-0.7v-4.7l0,0l0,0v-0.3c3.3-1.3,5.5-3.7,6.5-5.7l0.5-1c0.1-0.2,0.1-0.3,0.1-0.5v-6.6
					c1.5,0.6,2.9,1.2,4.4,1.8l3.9,1.7c0.5,0.2,1.1,0,1.4-0.5L103,81c0.3-0.5,0.1-1.1-0.3-1.4l-9.9-7c0.3-7.9,0.7-25.7-1.6-34.8
					C88.4,26.5,70.8,16.1,63.1,12l-0.8-1.1c-1.1-0.1-2.2-0.1-3.3-0.1c-1.1,0-2.3,0.1-3.4,0.1l-0.8,1.2c-7.7,4.1-25.3,14.5-28.1,25.7
					c-2.3,9.1-1.9,27-1.6,34.8l-9.9,7C14.7,79.9,14.6,80.5,14.9,81z M38.9,105l-0.6-2.5h10.5c0.5,0,0.9-0.3,1-0.8
					c0.2-0.5,0-1-0.4-1.2c-0.1,0-1.3-0.9-1.6-3.2h22.3c-0.3,2.3-1.5,3.2-1.6,3.2c-0.4,0.3-0.6,0.8-0.4,1.2s0.6,0.8,1.1,0.8h9.7v2.5
					H38.9z M42.6,96.2c0-0.6-0.5-1.1-1.1-1.1c-2.5,0-3.9-1.4-4.6-2.2H42c0.6,0,1.1-0.5,1.1-1.1V77.5c0-0.6-0.5-1.1-1.1-1.1
					c0,0-0.5,0-2.5,0c-1.9,0-11.9,4.2-16.1,6l-0.1-0.2l8.3-5.8c0.3-0.2,0.5-0.6,0.5-1c0-0.2-1.4-25.5,1.2-36
					c2.3-9.3,22-19.9,25.6-21.8c3.5,1.8,23.3,12.5,25.6,21.8c2.6,10.5,1.2,35.8,1.2,36c0,0.4,0.2,0.8,0.5,1l8.3,5.8l-0.1,0.2
					c-4.2-1.8-14.2-6-16.1-6c-2,0-2.4,0-2.4,0c-0.6,0-1.1,0.5-1.1,1.1v14.2c0,0.6,0.5,1.1,1.1,1.1H81c-0.7,0.9-2.2,2.2-4.6,2.2
					c-0.3,0-0.6,0.1-0.8,0.3c-0.2,0.2-0.3,0.5-0.3,0.8c0,1.2,0.3,2.8,1.1,4.1h-4.9c0.5-1,1-2.3,1-4.1c0-0.6-0.5-1.1-1.1-1.1H46.6
					c-0.6,0-1.1,0.5-1.1,1.1c0,1.8,0.4,3.2,1,4.1h-5.3C42.7,98.4,42.7,96.3,42.6,96.2z M26.9,74c0.3-0.2,0.5-0.6,0.5-0.9
					c-0.3-7.4-0.8-25.7,1.5-34.8c2.7-10.7,21.5-21.4,27.2-24.4c0.2-0.1,0.3-0.2,0.4-0.4l1.2-1.8l0.8,0.4c0.3,0.2,0.7,0.2,1,0
					l0.8-0.4l1.2,1.8c0.1,0.1,0.2,0.3,0.4,0.4c5.7,3,24.6,13.7,27.3,24.4c2.3,9.1,1.8,27.4,1.5,34.8c0,0.4,0.2,0.7,0.5,0.9l9.6,6.8
					l-4.2,7.6l-3-1.3c-4.6-2-9.5-4-12.6-5.1c-0.3-0.1-0.7-0.1-1,0.1c-0.3,0.2-0.5,0.6-0.5,0.9v4.1c0,0.6,0.5,1.1,1.1,1.1H86v5.4
					l-0.4,0.8c-0.9,1.7-3,3.9-6,4.9c-0.3,0.1-0.6,0.4-0.7,0.7c-0.8-0.6-1.1-1.8-1.3-2.7c4-0.6,5.8-3.8,5.8-4
					c0.1-0.2,0.1-0.3,0.1-0.5v-0.9c0-0.6-0.5-1.1-1.1-1.1H77v-12c0.3,0,0.8,0,1.3,0c1.2,0,9.1,3.2,16.2,6.2c0.5,0.2,1.1,0,1.4-0.5
					l1.1-1.9c0.3-0.5,0.1-1.1-0.3-1.4L88,74.9c0.2-4.1,1.2-26-1.3-36C84.2,28.7,64.5,18,59.9,15.6c-0.2-0.2-0.4-0.3-0.7-0.3
					c-0.4-0.1-0.9,0-1.1,0.3C53.5,18,33.8,28.7,31.2,38.9c-2.5,10-1.5,32-1.3,36L21.3,81c-0.5,0.3-0.6,0.9-0.3,1.4l1.1,1.9
					c0.3,0.5,0.9,0.7,1.4,0.5c7-3,15-6.2,16.1-6.2c0.6,0,1,0,1.3,0v12h-5.5c-0.6,0-1.1,0.5-1.1,1.1v0.9c0,0.2,0,0.4,0.1,0.5
					c0.1,0.2,1.8,3.4,5.8,4c-0.2,0.9-0.9,2.1-2.6,3.1l-0.2-0.9c-0.1-0.3-0.3-0.6-0.6-0.7c-2.3-1.1-3.9-3-4.6-4.3l-0.4-0.8v-5.4h5.5
					c0.6,0,1.1-0.5,1.1-1.1v-4.1c0-0.4-0.2-0.7-0.5-0.9c-0.3-0.2-0.7-0.3-1-0.1c-3,1.1-8,3.1-12.6,5.1l-3,1.3l-4.2-7.6L26.9,74z
					 M85.1,86h-3.4v-1.3C82.7,85,83.8,85.5,85.1,86z M32.8,86c1.2-0.5,2.4-1,3.4-1.3V86H32.8z"/>
				<path d="M44.7,109.7c4.5,1.3,9.3,2,14.2,2s9.7-0.7,14.2-2H44.7z"/>
				<path d="M92.2,91.7c-0.3-0.2-0.7-0.1-1.1,0.1c-0.3,0.2-0.5,0.6-0.5,0.9v2.1l-0.9,1.8c-1.2,2.2-3.3,4.4-5.7,5.8
					c-0.3,0.2-0.6,0.6-0.6,0.9v2c0.8-0.4,1.5-0.9,2.2-1.3V104c2.5-1.6,4.7-3.9,6-6.4l1.1-2.1c0.1-0.2,0.1-0.3,0.1-0.5v-0.7l3,1.3
					c0.5-0.6,1-1.2,1.6-1.7L92.2,91.7z"/>
				<path d="M46.1,92.9h25.4c0.6,0,1.1-0.5,1.1-1.1V77.6c0-0.6-0.5-1.1-1.1-1.1H46.1c-0.6,0-1.1,0.5-1.1,1.1v14.2
					C45,92.4,45.5,92.9,46.1,92.9z M47.2,78.7h23.2v11.9H47.2V78.7z"/>
				<path d="M59.7,48.2h-2c-0.6,0-1.1,0.5-1.1,1.1v15c0,0.6,0.5,1.1,1.1,1.1h2c0.6,0,1.1-0.5,1.1-1.1v-15
					C60.8,48.7,60.3,48.2,59.7,48.2z"/>
				<path d="M61.7,99.8h-5.5c-0.5,0-0.9,0.3-1.1,0.8s0,1,0.4,1.2l2.7,1.8c0.2,0.1,0.4,0.2,0.6,0.2c0.2,0,0.4-0.1,0.6-0.2l2.7-1.8
					c0.4-0.3,0.6-0.8,0.4-1.2C62.6,100.1,62.2,99.8,61.7,99.8z"/>
				<path d="M53.1,70.1h11.3c0.6,0,1.1-0.5,1.1-1.1V44.7c0-0.6-0.5-1.1-1.1-1.1H53.1c-0.6,0-1.1,0.5-1.1,1.1V69
					C52,69.6,52.5,70.1,53.1,70.1z M54.2,45.8h9.1v22.1h-9.1V45.8z"/>
			</g>
		</g>
	</g>
</g>
</svg>
