<?xml version="1.0" encoding="utf-8"?>
<!-- Generator: Adobe Illustrator 26.0.2, SVG Export Plug-In . SVG Version: 6.00 Build 0)  -->
<svg version="1.1" id="Layer_1" xmlns="http://www.w3.org/2000/svg" xmlns:xlink="http://www.w3.org/1999/xlink" x="0px" y="0px"
	 viewBox="0 0 100 100" style="enable-background:new 0 0 100 100;" xml:space="preserve">
<path d="M50,0C22.39,0,0,22.39,0,50c0,27.61,22.39,50,50,50s50-22.39,50-50C100,22.39,77.61,0,50,0z M75.72,36.82
	c0.08,0.34,0.13,0.89,0.13,1.65c0,4.48-0.85,8.93-2.53,13.36c-1.69,4.43-4.08,8.49-7.16,12.16c-3.08,3.67-7.08,6.65-11.97,8.93
	c-4.9,2.28-10.31,3.42-16.22,3.42c-7.43,0-14.23-1.99-20.4-5.95c0.93,0.08,1.98,0.13,3.17,0.13c6.16,0,11.7-1.9,16.6-5.7
	c-2.96,0-5.55-0.87-7.79-2.6c-2.24-1.73-3.78-3.91-4.62-6.52c0.84,0.09,1.65,0.13,2.41,0.13c1.18,0,2.36-0.13,3.55-0.38
	c-2.03-0.42-3.84-1.27-5.45-2.53c-1.61-1.27-2.87-2.81-3.8-4.62c-0.93-1.81-1.39-3.78-1.39-5.89v-0.25c1.86,1.1,3.84,1.69,5.95,1.77
	c-3.97-2.7-5.95-6.42-5.95-11.15c0-2.36,0.63-4.6,1.9-6.71c3.29,4.14,7.33,7.43,12.1,9.88c4.77,2.45,9.86,3.8,15.27,4.05
	c-0.17-1.01-0.25-2.03-0.25-3.04c0-3.63,1.29-6.76,3.86-9.37c2.58-2.62,5.68-3.93,9.31-3.93c3.88,0,7.14,1.39,9.76,4.18
	c3.04-0.59,5.87-1.65,8.49-3.17c-1.01,3.13-2.96,5.57-5.83,7.35c2.53-0.34,5.07-1.06,7.6-2.15C80.57,32.56,78.33,34.88,75.72,36.82z
	"/>
</svg>
