<?xml version="1.0" encoding="utf-8"?>
<!-- Generator: Adobe Illustrator 26.0.2, SVG Export Plug-In . SVG Version: 6.00 Build 0)  -->
<svg version="1.1" id="Layer_1" xmlns="http://www.w3.org/2000/svg" xmlns:xlink="http://www.w3.org/1999/xlink" x="0px" y="0px"
	 viewBox="0 0 468 297.36" style="enable-background:new 0 0 468 297.36;" xml:space="preserve">
<g>
	<g>
		<g>
			<path d="M0,253.11l3.25-0.81v-34.65L0,216.83v-0.81h13.81c6.46,0,11.41,1.66,14.86,4.98c3.45,3.32,5.17,7.98,5.17,13.97
				c0,5.99-1.72,10.65-5.17,13.97c-3.45,3.32-8.4,4.98-14.86,4.98H0V253.11z M13.81,252.56c3.36,0,5.95-1.36,7.8-4.09
				c1.84-2.73,2.76-7.23,2.76-13.51s-0.92-10.78-2.76-13.51c-1.84-2.73-4.44-4.09-7.8-4.09h-1.62v35.19H13.81z"/>
			<path d="M42.01,250.91c-2.56-2.54-3.84-6.05-3.84-10.53c0-2.92,0.56-5.47,1.68-7.63c1.12-2.17,2.68-3.82,4.68-4.98
				c2-1.15,4.3-1.73,6.9-1.73s4.88,0.49,6.85,1.46c1.97,0.98,3.48,2.28,4.55,3.92c1.06,1.64,1.6,3.46,1.6,5.44
				c0,0.9-0.09,1.68-0.27,2.33l-0.27,0.92c-1.55,0.33-3.23,0.6-5.04,0.81c-3.79,0.54-7.62,0.81-11.48,0.81
				c0,4.19,0.58,7.17,1.73,8.96c1.15,1.79,2.74,2.68,4.76,2.68c1.41,0,2.72-0.33,3.92-1c1.21-0.67,2.17-1.55,2.87-2.65
				c0.7-1.1,1.06-2.23,1.06-3.38h1.35c0,1.44-0.43,2.81-1.3,4.11c-0.87,1.3-2.08,2.34-3.63,3.11c-1.55,0.78-3.34,1.16-5.36,1.16
				C48.16,254.73,44.57,253.46,42.01,250.91z M53,240.11c0.61-0.04,1.26-0.13,1.95-0.27c0.04-0.18,0.13-0.58,0.27-1.19
				c0.18-0.9,0.27-1.86,0.27-2.87c0-3-0.4-5.19-1.19-6.58c-0.79-1.39-1.75-2.08-2.87-2.08c-2.71,0-4.06,4.42-4.06,13.26
				C49.68,240.38,51.56,240.29,53,240.11z"/>
			<path d="M70.11,228.74c0.76-0.25,1.51-0.67,2.27-1.25c1.55-1.15,2.51-2.72,2.87-4.71l-0.7,0.43c-0.47,0.25-1.05,0.38-1.73,0.38
				c-1.08,0-2.03-0.41-2.84-1.22c-0.81-0.81-1.22-1.76-1.22-2.84c0-1.08,0.41-2.03,1.22-2.84c0.81-0.81,1.76-1.22,2.84-1.22
				c1.26,0,2.3,0.44,3.11,1.33c0.81,0.89,1.22,2.07,1.22,3.55c0,3.32-1.08,5.92-3.25,7.8c-0.94,0.87-2.02,1.52-3.25,1.95
				L70.11,228.74z"/>
			<path d="M82.29,253.11l3.25-0.81v-34.65l-3.25-0.81v-0.81H96.9c5.49,0,9.52,0.88,12.1,2.63c2.58,1.75,3.87,4.03,3.87,6.85
				c0,1.95-0.56,3.52-1.68,4.71c-1.12,1.19-2.54,2.08-4.28,2.65c-1.84,0.65-3.83,0.99-5.95,1.03v0.27c2.63,0.11,4.93,0.51,6.88,1.19
				c1.98,0.65,3.64,1.66,4.95,3.03c1.32,1.37,1.98,3.12,1.98,5.25c0,3.21-1.32,5.73-3.95,7.55c-2.64,1.82-6.91,2.73-12.83,2.73
				h-15.7V253.11z M96.9,233.35c1.19,0,2.3-0.33,3.33-1c1.03-0.67,1.86-1.61,2.49-2.82c0.63-1.21,0.95-2.55,0.95-4.03
				c0-1.59-0.32-3-0.95-4.22c-0.63-1.23-1.46-2.18-2.49-2.87c-1.03-0.68-2.14-1.03-3.33-1.03h-2.44v15.97H96.9z M97.99,252.56
				c2.24,0,4.06-0.79,5.47-2.38c1.41-1.59,2.11-3.77,2.11-6.55c0-2.78-0.7-4.96-2.11-6.55c-1.41-1.59-3.23-2.38-5.47-2.38h-3.52
				v17.87H97.99z"/>
			<path d="M122.4,250.91c-2.56-2.54-3.84-6.05-3.84-10.53c0-2.92,0.56-5.47,1.68-7.63c1.12-2.17,2.68-3.82,4.68-4.98
				c2-1.15,4.3-1.73,6.9-1.73c2.6,0,4.88,0.49,6.85,1.46c1.97,0.98,3.48,2.28,4.55,3.92c1.06,1.64,1.6,3.46,1.6,5.44
				c0,0.9-0.09,1.68-0.27,2.33l-0.27,0.92c-1.55,0.33-3.23,0.6-5.04,0.81c-3.79,0.54-7.62,0.81-11.48,0.81
				c0,4.19,0.58,7.17,1.73,8.96c1.15,1.79,2.74,2.68,4.76,2.68c1.41,0,2.72-0.33,3.92-1c1.21-0.67,2.17-1.55,2.87-2.65
				c0.7-1.1,1.06-2.23,1.06-3.38h1.35c0,1.44-0.43,2.81-1.3,4.11c-0.87,1.3-2.08,2.34-3.63,3.11s-3.34,1.16-5.36,1.16
				C128.55,254.73,124.96,253.46,122.4,250.91z M133.39,240.11c0.61-0.04,1.26-0.13,1.95-0.27c0.04-0.18,0.13-0.58,0.27-1.19
				c0.18-0.9,0.27-1.86,0.27-2.87c0-3-0.4-5.19-1.19-6.58c-0.79-1.39-1.75-2.08-2.87-2.08c-2.71,0-4.06,4.42-4.06,13.26
				C130.07,240.38,131.95,240.29,133.39,240.11z"/>
			<path d="M148.87,253.11l3.25-0.81v-23.82l-3.25-0.81v-0.81h4.87c2.13,0,3.81,0.69,5.03,2.06c0.47,0.54,0.87,1.21,1.19,2
				c0.51-0.94,1.1-1.75,1.79-2.44c1.62-1.62,3.64-2.44,6.06-2.44c2.02,0,3.83,0.42,5.44,1.27c1.61,0.85,2.86,1.96,3.76,3.33
				c0.9,1.37,1.35,2.82,1.35,4.33v17.32l3.25,0.81v0.81h-7.04c-3.25,0-4.87-1.62-4.87-4.87v-14.08c0-2.27-0.41-4.01-1.22-5.22
				c-0.81-1.21-1.76-1.81-2.84-1.81c-1.37,0-2.6,0.72-3.68,2.17c-0.47,0.61-0.87,1.33-1.19,2.17v20.03l3.25,0.81v0.81h-15.16V253.11
				z"/>
			<path d="M188.01,252.67c-1.73-1.37-2.6-3.12-2.6-5.25c0-1.41,0.31-2.8,0.92-4.17c0.25-0.65,0.58-1.25,0.98-1.79
				c1.48-0.36,3.09-0.69,4.82-0.97c3.9-0.65,7.34-1.05,10.34-1.19v-1.62c0-4.01-0.49-6.77-1.46-8.28c-0.97-1.51-2.47-2.27-4.49-2.27
				c-0.76,0-1.41,0.09-1.95,0.27l-0.76,0.27v8.12l-0.7,0.16c-0.58,0.07-1.06,0.11-1.46,0.11c-1.23,0-2.21-0.37-2.95-1.11
				c-0.74-0.74-1.11-1.72-1.11-2.95c0-1.66,0.84-3.07,2.52-4.22c1.68-1.15,4.18-1.73,7.5-1.73c2.81,0,5.24,0.5,7.28,1.49
				c2.04,0.99,3.59,2.36,4.66,4.11c1.06,1.75,1.6,3.76,1.6,6.04v14.62l3.25,0.81v0.81h-4.87c-2.17,0-3.84-0.67-5.03-2
				c-0.51-0.54-0.9-1.23-1.19-2.06c-0.51,0.9-1.1,1.72-1.79,2.44c-1.62,1.62-3.65,2.44-6.06,2.44
				C192.22,254.73,189.75,254.04,188.01,252.67z M201.22,250.67c0.4-0.54,0.81-1.26,1.24-2.17v-7.85c-1.66,0-3.25,0.09-4.76,0.27
				c-1.12,0.14-1.88,0.23-2.27,0.27c-0.18,0.4-0.36,0.94-0.54,1.62c-0.36,1.37-0.54,2.73-0.54,4.06c0,2.02,0.31,3.52,0.92,4.49
				c0.61,0.97,1.39,1.46,2.33,1.46C198.93,252.83,200.14,252.11,201.22,250.67z"/>
			<path d="M217.63,253.11l3.25-0.81v-23.82l-3.25-0.81v-0.81h4.87c2.13,0,3.81,0.69,5.04,2.06c0.47,0.54,0.87,1.21,1.19,2
				c0.5-0.94,1.1-1.75,1.79-2.44c1.62-1.62,3.65-2.44,6.06-2.44c2.02,0,3.83,0.42,5.44,1.27c1.61,0.85,2.86,1.96,3.76,3.33
				c0.9,1.37,1.35,2.82,1.35,4.33v17.32l3.25,0.81v0.81h-7.04c-3.25,0-4.87-1.62-4.87-4.87v-14.08c0-2.27-0.41-4.01-1.22-5.22
				c-0.81-1.21-1.76-1.81-2.84-1.81c-1.37,0-2.6,0.72-3.68,2.17c-0.47,0.61-0.87,1.33-1.19,2.17v20.03l3.25,0.81v0.81h-15.16V253.11
				z"/>
			<path d="M258.5,264.69c-2.02-0.58-3.47-1.32-4.36-2.22c-0.89-0.9-1.33-1.86-1.33-2.87c0-1.23,0.37-2.21,1.11-2.95
				c0.74-0.74,1.72-1.11,2.95-1.11c0.29,0,0.81,0.05,1.57,0.16l0.59,0.11v7.58c0.43,0.14,1.12,0.33,2.06,0.54
				c1.66,0.36,3.23,0.54,4.71,0.54c4.4,0,7.62-0.62,9.66-1.87c2.04-1.24,3.06-2.79,3.06-4.63c0-2.35-2.17-3.52-6.5-3.52h-10.29
				c-2.71,0-4.78-0.56-6.23-1.68c-1.45-1.12-2.17-2.54-2.17-4.28c0-1.73,0.85-3.27,2.54-4.6c0.68-0.5,1.55-0.96,2.6-1.35
				c-1.34-0.83-2.3-1.81-2.9-2.95c-0.6-1.14-0.89-2.5-0.89-4.09c0-2.67,1.01-4.83,3.03-6.47c2.02-1.64,4.98-2.46,8.88-2.46
				c1.7,0,3.26,0.17,4.68,0.51c1.42,0.34,2.57,0.8,3.44,1.38c0.29-0.61,0.67-1.16,1.14-1.62c1.08-1.08,2.42-1.62,4.01-1.62
				c1.23,0,2.26,0.42,3.09,1.27c0.83,0.85,1.24,1.96,1.24,3.33c0,1.05-0.28,1.89-0.84,2.54c-0.56,0.65-1.27,0.97-2.14,0.97
				c-0.4,0-0.85-0.04-1.35-0.11l-0.54-0.16v-6.5c-0.94,0-1.82,0.45-2.65,1.35c-0.33,0.33-0.61,0.78-0.87,1.35
				c1.8,1.59,2.71,3.66,2.71,6.23c0,2.67-1.01,4.83-3.03,6.47c-2.02,1.64-4.98,2.46-8.88,2.46c-2.6,0-4.95-0.45-7.04-1.35
				l-1.08,0.54c-0.36,0.22-0.63,0.42-0.81,0.62c-0.18,0.2-0.27,0.44-0.27,0.73c0,0.61,0.32,1.08,0.95,1.41s1.76,0.49,3.38,0.49
				h10.29c2.71,0,4.83,0.78,6.36,2.36c1.53,1.57,2.3,3.76,2.3,6.58c0,2.89-1.2,5.23-3.6,7.04c-2.4,1.8-5.98,2.71-10.75,2.71
				C263.14,265.56,260.52,265.27,258.5,264.69z M269.41,241.63c0.67-1.15,1-3.19,1-6.12s-0.33-4.96-1-6.12
				c-0.67-1.15-1.6-1.73-2.79-1.73c-1.19,0-2.12,0.58-2.79,1.73c-0.67,1.16-1,3.2-1,6.12s0.33,4.96,1,6.12
				c0.67,1.16,1.6,1.73,2.79,1.73C267.81,243.36,268.74,242.78,269.41,241.63z"/>
			<path d="M308.14,253c-1.01-0.51-1.86-1.1-2.54-1.79c-0.51,0.83-1.14,1.57-1.89,2.22c-0.65,0.47-1.01,0.72-1.08,0.76h-1.35V243.9
				h2.17c0.54,1.77,1.3,3.36,2.27,4.76c2.2,3.14,5.05,4.71,8.55,4.71c2.06,0,3.7-0.61,4.93-1.84c1.23-1.23,1.84-2.87,1.84-4.93
				c0-1.19-0.35-2.26-1.06-3.19c-0.7-0.94-1.58-1.77-2.63-2.49c-1.05-0.72-2.51-1.62-4.38-2.71c-2.38-1.33-4.31-2.54-5.79-3.63
				c-1.48-1.08-2.74-2.45-3.79-4.09c-1.05-1.64-1.57-3.58-1.57-5.82c0-1.77,0.49-3.37,1.49-4.79c0.99-1.42,2.48-2.56,4.47-3.41
				s4.42-1.27,7.31-1.27c2.09,0,4.19,0.6,6.28,1.79c0.79,0.43,1.59,1.01,2.38,1.73c0.61-0.94,1.24-1.68,1.89-2.22
				c0.65-0.47,1.01-0.72,1.08-0.76h1.35v10.28h-2.17c-0.47-1.73-1.17-3.3-2.11-4.71c-0.87-1.37-1.94-2.51-3.22-3.41
				c-1.28-0.9-2.75-1.35-4.41-1.35c-1.41,0-2.62,0.56-3.63,1.68c-1.01,1.12-1.51,2.54-1.51,4.28c0,1.34,0.39,2.54,1.16,3.6
				c0.78,1.06,1.73,1.99,2.87,2.79c1.14,0.79,2.68,1.75,4.63,2.87c2.27,1.3,4.11,2.45,5.52,3.46c1.41,1.01,2.6,2.27,3.57,3.76
				c0.98,1.5,1.46,3.22,1.46,5.17c0,1.95-0.56,3.73-1.68,5.33c-1.12,1.61-2.8,2.88-5.04,3.82c-2.24,0.94-4.96,1.41-8.17,1.41
				C312.78,254.73,310.38,254.15,308.14,253z"/>
			<path d="M341.62,253.43c-1.75-0.87-3.1-2.06-4.03-3.57c-0.94-1.51-1.41-3.23-1.41-5.14V228.2h-3.79v-1.35h3.79v-2.71
				c0-3.25,1.62-4.87,4.87-4.87h3.79v7.58h7.58v1.35h-7.58v16.51c0,3.32,0.34,5.59,1.03,6.82c0.69,1.23,1.7,1.84,3.03,1.84
				c1.3,0,2.44-0.63,3.41-1.89c0.97-1.26,1.46-2.98,1.46-5.14h1.35c0,2.67-0.67,4.74-2,6.2c-1.33,1.46-3.1,2.19-5.3,2.19
				C345.44,254.73,343.37,254.3,341.62,253.43z"/>
			<path d="M361.92,250.91c-2.54-2.54-3.82-6.05-3.82-10.53c0-4.47,1.27-7.98,3.82-10.53c2.54-2.54,6.05-3.82,10.53-3.82
				c4.48,0,7.99,1.27,10.53,3.82c2.54,2.54,3.82,6.06,3.82,10.53c0,4.48-1.27,7.99-3.82,10.53c-2.54,2.54-6.05,3.82-10.53,3.82
				C367.98,254.73,364.47,253.46,361.92,250.91z M376.11,250.61c0.99-2.02,1.49-5.43,1.49-10.23c0-4.8-0.5-8.21-1.49-10.23
				c-0.99-2.02-2.21-3.03-3.65-3.03s-2.66,1.01-3.65,3.03c-0.99,2.02-1.49,5.43-1.49,10.23c0,4.8,0.49,8.21,1.49,10.23
				c0.99,2.02,2.21,3.03,3.65,3.03S375.11,252.64,376.11,250.61z"/>
			<path d="M391.13,253.11l3.25-0.81v-34.65l-3.25-0.81v-0.81h7.04c3.25,0,4.87,1.62,4.87,4.87v18.95l10.01-10.56l-4.06-1.62v-0.81
				h10.29v0.81l-4.33,1.62l-6.23,6.5l10.56,16.51l2.71,0.81v0.81h-7.04c-1.73,0-3.14-0.38-4.22-1.14c-1.08-0.76-2.11-1.91-3.09-3.47
				l-4.6-7.31v10.29l3.25,0.81v0.81h-15.16V253.11z"/>
			<path d="M426.37,250.91c-2.56-2.54-3.84-6.05-3.84-10.53c0-2.92,0.56-5.47,1.68-7.63c1.12-2.17,2.68-3.82,4.68-4.98
				c2-1.15,4.3-1.73,6.9-1.73s4.88,0.49,6.85,1.46c1.97,0.98,3.48,2.28,4.55,3.92c1.06,1.64,1.6,3.46,1.6,5.44
				c0,0.9-0.09,1.68-0.27,2.33l-0.27,0.92c-1.55,0.33-3.23,0.6-5.04,0.81c-3.79,0.54-7.62,0.81-11.48,0.81
				c0,4.19,0.58,7.17,1.73,8.96c1.15,1.79,2.74,2.68,4.76,2.68c1.41,0,2.72-0.33,3.92-1c1.21-0.67,2.17-1.55,2.87-2.65
				c0.7-1.1,1.06-2.23,1.06-3.38h1.35c0,1.44-0.43,2.81-1.3,4.11c-0.87,1.3-2.08,2.34-3.63,3.11s-3.34,1.16-5.36,1.16
				C432.52,254.73,428.93,253.46,426.37,250.91z M437.36,240.11c0.61-0.04,1.26-0.13,1.95-0.27c0.04-0.18,0.13-0.58,0.27-1.19
				c0.18-0.9,0.27-1.86,0.27-2.87c0-3-0.4-5.19-1.19-6.58c-0.79-1.39-1.75-2.08-2.87-2.08c-2.71,0-4.06,4.42-4.06,13.26
				C434.04,240.38,435.92,240.29,437.36,240.11z"/>
			<path d="M452.84,253.11l3.25-0.81v-34.65l-3.25-0.81v-0.81h7.04c3.25,0,4.87,1.62,4.87,4.87v31.4l3.25,0.81v0.81h-15.16V253.11z"
				/>
		</g>
		<g>
			<g>
				<path d="M147.41,297.36c-1.23,0-2.37-0.2-3.43-0.62c-1.05-0.41-1.97-1.02-2.74-1.82c-0.77-0.8-1.38-1.79-1.8-2.97
					c-0.43-1.17-0.64-2.52-0.64-4.03c0-1.49,0.22-2.83,0.67-4.01c0.45-1.18,1.06-2.19,1.83-3.01c0.77-0.82,1.69-1.45,2.74-1.87
					c1.05-0.43,2.19-0.64,3.4-0.64c1.31,0,2.41,0.24,3.32,0.71c0.9,0.48,1.65,1.01,2.22,1.61l-1.73,2.1
					c-0.47-0.45-0.98-0.83-1.55-1.13c-0.57-0.31-1.28-0.46-2.14-0.46c-0.82,0-1.56,0.15-2.22,0.46c-0.66,0.31-1.23,0.75-1.71,1.32
					c-0.48,0.57-0.84,1.26-1.11,2.08c-0.26,0.82-0.39,1.74-0.39,2.77c0,2.09,0.47,3.73,1.41,4.91c0.94,1.18,2.34,1.78,4.18,1.78
					c0.52,0,1.02-0.07,1.48-0.21s0.85-0.34,1.15-0.6v-3.95h-3.47v-2.66h6.38v8.06c-0.62,0.62-1.43,1.13-2.45,1.55
					C149.8,297.15,148.66,297.36,147.41,297.36z"/>
				<path d="M155.05,297.02l5.96-18.3h3.8l5.96,18.3h-3.41l-1.43-4.95h-6.16l-1.43,4.95H155.05z M161.18,287.29l-0.64,2.24h4.67
					l-0.64-2.24c-0.3-0.97-0.58-1.97-0.85-2.99c-0.27-1.03-0.54-2.04-0.8-3.05h-0.11c-0.26,1.02-0.52,2.05-0.78,3.06
					C161.76,285.32,161.48,286.32,161.18,287.29z"/>
				<path d="M173.32,297.02v-18.3h6.18c0.95,0,1.84,0.09,2.66,0.28c0.82,0.19,1.53,0.49,2.13,0.91c0.6,0.42,1.07,0.98,1.41,1.67
					c0.35,0.69,0.52,1.55,0.52,2.57c0,1.4-0.33,2.53-0.99,3.39c-0.66,0.86-1.54,1.47-2.64,1.85l4.36,7.64h-3.64l-3.94-7.16h-2.8
					v7.16H173.32z M176.57,287.29h2.6c1.25,0,2.21-0.26,2.87-0.78c0.66-0.52,0.99-1.31,0.99-2.35c0-1.06-0.33-1.8-0.99-2.21
					c-0.66-0.41-1.62-0.62-2.87-0.62h-2.6V287.29z"/>
				<path d="M190.16,297.02v-18.3h4.9c2.8,0,4.98,0.76,6.55,2.27s2.35,3.78,2.35,6.8c0,1.51-0.2,2.84-0.6,4
					c-0.4,1.16-0.98,2.12-1.73,2.9c-0.76,0.77-1.67,1.36-2.74,1.75c-1.07,0.39-2.29,0.59-3.65,0.59H190.16z M193.41,294.39h1.43
					c1.86,0,3.3-0.54,4.29-1.61c1-1.07,1.5-2.74,1.5-4.99c0-2.24-0.5-3.87-1.51-4.9c-1.01-1.03-2.43-1.54-4.28-1.54h-1.43V294.39z"
					/>
				<path d="M207.93,297.02v-18.3h11.02v2.74h-7.78v4.67h6.57v2.74h-6.57v5.4h8.06v2.74H207.93z"/>
				<path d="M223.26,297.02v-18.3h3.33l5.71,10.29l1.87,3.89h0.11c-0.08-0.95-0.16-1.97-0.27-3.06c-0.1-1.09-0.15-2.15-0.15-3.18
					v-7.94h3.1v18.3h-3.33l-5.71-10.29l-1.87-3.89h-0.11c0.07,0.97,0.16,1.99,0.27,3.05c0.1,1.06,0.15,2.11,0.15,3.13v8H223.26z"/>
				<path d="M251.04,297.02l-5.71-18.3h3.44l2.57,9.2c0.3,1.05,0.56,2.03,0.8,2.97c0.23,0.93,0.51,1.93,0.83,2.99h0.11
					c0.32-1.06,0.59-2.06,0.83-2.99c0.23-0.93,0.49-1.92,0.77-2.97l2.55-9.2h3.33l-5.68,18.3H251.04z"/>
				<path d="M263.04,297.02v-18.3h3.24v18.3H263.04z"/>
				<path d="M271.21,297.02v-18.3h3.25v15.56h7.61v2.74H271.21z"/>
				<path d="M285.53,297.02v-18.3h3.24v15.56h7.61v2.74H285.53z"/>
				<path d="M297.48,297.02l5.96-18.3h3.8l5.96,18.3h-3.41l-1.43-4.95h-6.16l-1.43,4.95H297.48z M303.6,287.29l-0.64,2.24h4.67
					l-0.64-2.24c-0.3-0.97-0.58-1.97-0.85-2.99c-0.27-1.03-0.54-2.04-0.8-3.05h-0.11c-0.26,1.02-0.52,2.05-0.78,3.06
					C304.18,285.32,303.9,286.32,303.6,287.29z"/>
				<path d="M321.09,297.36c-1.23,0-2.42-0.23-3.57-0.7c-1.15-0.47-2.16-1.13-3.04-1.99l1.9-2.21c0.65,0.61,1.4,1.11,2.24,1.5
					c0.84,0.38,1.68,0.57,2.52,0.57c1.04,0,1.84-0.22,2.38-0.64c0.54-0.43,0.81-1,0.81-1.71c0-0.37-0.07-0.69-0.21-0.95
					c-0.14-0.26-0.34-0.49-0.59-0.68c-0.25-0.2-0.55-0.38-0.9-0.55c-0.34-0.17-0.72-0.34-1.13-0.5l-2.52-1.09
					c-0.45-0.19-0.89-0.42-1.33-0.7c-0.44-0.28-0.83-0.61-1.19-1.01c-0.36-0.39-0.64-0.85-0.85-1.37c-0.21-0.52-0.32-1.12-0.32-1.79
					c0-0.73,0.15-1.4,0.46-2.03c0.31-0.63,0.73-1.17,1.27-1.64c0.54-0.47,1.19-0.83,1.95-1.09c0.75-0.26,1.58-0.39,2.48-0.39
					c1.06,0,2.09,0.21,3.08,0.63c0.99,0.42,1.84,0.98,2.54,1.69l-1.65,2.07c-0.6-0.48-1.21-0.87-1.85-1.15
					c-0.63-0.28-1.34-0.42-2.13-0.42c-0.88,0-1.58,0.19-2.1,0.57c-0.52,0.38-0.78,0.91-0.78,1.58c0,0.36,0.08,0.66,0.24,0.91
					c0.16,0.25,0.37,0.48,0.64,0.67c0.27,0.2,0.58,0.37,0.94,0.53c0.35,0.16,0.72,0.31,1.09,0.46l2.49,1.04
					c0.54,0.22,1.04,0.48,1.48,0.78c0.45,0.3,0.83,0.64,1.16,1.04c0.33,0.39,0.58,0.84,0.77,1.36c0.19,0.51,0.28,1.11,0.28,1.78
					c0,0.75-0.15,1.45-0.45,2.1c-0.3,0.65-0.73,1.23-1.3,1.72c-0.57,0.49-1.26,0.89-2.07,1.17
					C323.04,297.21,322.12,297.36,321.09,297.36z"/>
			</g>
		</g>
	</g>
	<g>
		<g>
			<g>
				<path d="M239.09,159.05c-43.85,0-79.52-35.67-79.52-79.53S195.24,0,239.09,0c43.85,0,79.53,35.67,79.53,79.53
					S282.94,159.05,239.09,159.05z M239.09,3.59c-41.87,0-75.93,34.06-75.93,75.93s34.06,75.93,75.93,75.93s75.93-34.06,75.93-75.93
					S280.95,3.59,239.09,3.59z"/>
			</g>
			<g>
				<g>
					<path d="M239.09,149.42c-38.54,0-69.89-31.35-69.89-69.89s31.35-69.89,69.89-69.89c38.54,0,69.89,31.35,69.89,69.89
						S277.63,149.42,239.09,149.42z M239.09,12.63c-36.89,0-66.9,30.01-66.9,66.9s30.01,66.9,66.9,66.9s66.9-30.01,66.9-66.9
						S275.97,12.63,239.09,12.63z"/>
				</g>
				<g>
					<path d="M288.94,46.16c-3.15-12.67-16.94-24-29.21-31.85c-3.12-0.99-6.34-1.75-9.64-2.29c13,7.29,32.32,20.3,35.94,34.86
						c2.93,11.79,2.7,33.58,2.31,45.51c-0.02,0.5,0.22,0.98,0.63,1.27l14.12,9.96c0.37-0.97,0.71-1.95,1.03-2.94l-12.76-9.01
						C291.75,79.44,291.89,58.04,288.94,46.16z"/>
					<path d="M171.6,90.61l4.78-3.37c0.41-0.29,0.64-0.76,0.63-1.25c-0.32-17.32,0.46-30.65,2.31-39.71
						c-1.7,3.06-3.19,6.25-4.42,9.58c-0.79,7.98-1.1,17.8-0.9,29.39l-2.86,2.02C171.27,88.39,171.42,89.5,171.6,90.61z"/>
					<path d="M301.16,85.98c-0.01,0.5,0.23,0.97,0.63,1.25l4.78,3.37c0.18-1.11,0.33-2.22,0.46-3.34l-2.86-2.02
						c0.19-11.59-0.11-21.41-0.9-29.39c-1.23-3.32-2.71-6.52-4.42-9.58C300.71,55.34,301.48,68.66,301.16,85.98z"/>
					<path d="M275.02,21.34c8.23,7,14.94,15.14,17.15,24.02c2.79,11.23,2.95,30.04,2.59,43.84c-0.01,0.5,0.22,0.97,0.63,1.26
						l9.73,6.86c0.28-1.03,0.53-2.08,0.76-3.13l-8.11-5.72c0.33-13.91,0.12-32.5-2.7-43.84c-0.82-3.29-2.2-6.46-4-9.52
						C286.48,29.74,281.07,25.08,275.02,21.34z"/>
					<path d="M204.52,135.37c-0.09-0.36-0.31-0.67-0.61-0.88c-2.79-1.91-5.11-4.44-6.52-7.11l-1.29-2.44v-2.83
						c0-0.5-0.25-0.97-0.67-1.25c-0.42-0.28-0.95-0.32-1.42-0.12l-7.06,3.04c0.68,0.8,1.38,1.59,2.1,2.36l4.06-1.75v0.92
						c0,0.24,0.06,0.48,0.17,0.7l1.47,2.77c1.56,2.95,4.03,5.72,7.01,7.85l0.05,0.23c1.18,0.77,2.39,1.5,3.62,2.2L204.52,135.37z"/>
					<path d="M175.08,103.64l14.12-9.96c0.41-0.29,0.65-0.77,0.63-1.27c-0.4-11.94-0.63-33.72,2.31-45.51
						c3.62-14.57,22.98-27.59,35.94-34.86c-3.3,0.53-6.52,1.3-9.64,2.28c-12.26,7.85-26.06,19.18-29.21,31.85
						c-2.96,11.88-2.81,33.28-2.42,45.53l-12.76,9.01C174.37,101.68,174.71,102.67,175.08,103.64z"/>
					<path d="M173.05,97.33l9.73-6.86c0.41-0.29,0.65-0.76,0.63-1.26c-0.36-13.8-0.2-32.61,2.59-43.84
						c2.21-8.89,8.92-17.03,17.16-24.03c-6.05,3.74-11.46,8.4-16.06,13.78c-1.81,3.06-3.19,6.24-4,9.52
						c-2.82,11.33-3.04,29.93-2.7,43.84l-8.11,5.72C172.52,95.25,172.77,96.29,173.05,97.33z"/>
					<path d="M249.82,106.54h-21.79c-0.83,0-1.5,0.67-1.5,1.5v6.52c0,0.83,0.67,1.5,1.5,1.5h21.79c0.83,0,1.5-0.67,1.5-1.5v-6.52
						C251.32,107.21,250.65,106.54,249.82,106.54z M248.32,113.06h-18.8v-3.52h18.8V113.06z"/>
					<path d="M179.35,106.33l6.97,12.61c0.37,0.67,1.2,0.96,1.9,0.65l5.27-2.27c1.95-0.84,3.96-1.69,5.94-2.51v8.92
						c0,0.24,0.06,0.48,0.17,0.7l0.73,1.39c0.55,1.04,2.62,4.49,6.96,6.84l1.95,8.03c0.05,0.19,0.14,0.36,0.25,0.51
						c0.46,0.22,0.93,0.42,1.4,0.63h56.41c0.46-0.21,0.92-0.4,1.37-0.62c0.19-0.25,0.32-0.54,0.32-0.88v-6.32c0,0,0,0,0-0.01
						s0,0,0-0.01v-0.45c4.43-1.74,7.46-5.07,8.86-7.73l0.73-1.39c0.11-0.22,0.17-0.46,0.17-0.7v-8.92c1.97,0.82,3.99,1.67,5.94,2.51
						l5.27,2.27c0.71,0.31,1.53,0.02,1.9-0.65l6.97-12.61c0.37-0.67,0.18-1.51-0.45-1.95l-13.46-9.49
						c0.42-10.67,0.96-34.82-2.12-47.2c-3.77-15.17-27.67-29.29-38.14-34.83l-1.09-1.56c-1.48-0.1-2.98-0.16-4.49-0.16
						c-1.54,0-3.06,0.07-4.57,0.17l-1.07,1.59c-10.46,5.54-34.31,19.64-38.08,34.8c-3.08,12.37-2.54,36.52-2.12,47.2l-13.46,9.49
						C179.17,104.82,178.98,105.66,179.35,106.33z M211.87,138.83l-0.81-3.33h14.2c0.65,0,1.22-0.43,1.42-1.04
						c0.2-0.62-0.03-1.3-0.56-1.68c-0.08-0.06-1.74-1.29-2.16-4.37h30.25c-0.43,3.08-2.08,4.31-2.15,4.36
						c-0.54,0.37-0.78,1.05-0.59,1.68c0.19,0.63,0.77,1.06,1.43,1.06h13.07v3.33H211.87z M217,126.83c-0.04-0.8-0.7-1.42-1.5-1.42
						c-3.31,0-5.34-1.86-6.29-3.02h6.96c0.83,0,1.5-0.67,1.5-1.5V101.6c0-0.82-0.67-1.49-1.49-1.5c0,0-0.66,0-3.32,0
						c-2.54,0-16.05,5.66-21.81,8.13l-0.15-0.27l11.23-7.92c0.42-0.3,0.66-0.79,0.63-1.31c-0.02-0.34-1.88-34.58,1.65-48.78
						c3.13-12.6,29.88-26.99,34.67-29.48c4.79,2.49,31.53,16.87,34.67,29.48c3.53,14.2,1.67,48.44,1.65,48.78
						c-0.03,0.52,0.21,1.01,0.63,1.31l11.23,7.92l-0.15,0.27c-5.76-2.46-19.27-8.12-21.81-8.13c-2.65,0-3.32,0-3.32,0
						c-0.82,0-1.49,0.67-1.49,1.5v19.29c0,0.83,0.67,1.5,1.5,1.5h6.95c-0.95,1.17-2.98,3.02-6.29,3.02c-0.41,0-0.79,0.16-1.08,0.46
						c-0.28,0.29-0.43,0.68-0.42,1.09c0.05,1.62,0.45,3.8,1.45,5.56h-6.61c0.7-1.32,1.3-3.16,1.3-5.6c0-0.83-0.67-1.5-1.5-1.5
						h-33.45c-0.83,0-1.5,0.67-1.5,1.5c0,2.44,0.59,4.28,1.3,5.6h-7.22C217.13,129.82,217.01,126.99,217,126.83z M195.65,96.86
						c0.42-0.29,0.65-0.78,0.63-1.29c-0.42-10.08-1.07-34.84,2-47.16c3.62-14.54,29.16-28.97,36.9-33.05
						c0.22-0.12,0.41-0.29,0.55-0.49l1.59-2.37l1.07,0.53c0.42,0.21,0.93,0.21,1.35-0.01l1.03-0.52l1.65,2.37
						c0.14,0.2,0.32,0.36,0.53,0.47c7.75,4.08,33.33,18.52,36.95,33.07c3.07,12.33,2.42,37.09,2,47.17
						c-0.02,0.51,0.22,0.99,0.63,1.29l13.03,9.19l-5.66,10.25l-4.02-1.73c-6.25-2.69-12.93-5.4-17.02-6.91
						c-0.46-0.17-0.97-0.1-1.37,0.18c-0.4,0.28-0.64,0.74-0.64,1.23v5.49c0,0.83,0.67,1.5,1.5,1.5h7.42v7.3l-0.56,1.06
						c-1.18,2.24-4.03,5.32-8.17,6.65c-0.45,0.15-0.8,0.5-0.95,0.93c-1.03-0.83-1.51-2.49-1.73-3.71c5.4-0.79,7.8-5.22,7.91-5.42
						c0.11-0.22,0.17-0.46,0.17-0.7v-1.28c0-0.83-0.67-1.5-1.5-1.5h-7.42v-16.29c0.46,0,1.05,0,1.81,0
						c1.58,0.05,12.36,4.32,21.88,8.42c0.71,0.31,1.53,0.02,1.9-0.65l1.45-2.63c0.37-0.67,0.18-1.51-0.45-1.95l-11.65-8.22
						c0.28-5.49,1.59-35.3-1.78-48.84c-3.43-13.8-30.15-28.29-36.32-31.48c-0.25-0.27-0.6-0.42-0.97-0.46
						c-0.56-0.16-1.16,0.02-1.54,0.47c-6.19,3.2-32.89,17.69-36.32,31.48c-3.37,13.55-2.06,43.36-1.78,48.84l-11.65,8.22
						c-0.62,0.44-0.82,1.28-0.45,1.95l1.45,2.63c0.37,0.68,1.2,0.96,1.9,0.65c9.52-4.1,20.31-8.37,21.88-8.42c0.75,0,1.35,0,1.81,0
						v16.29h-7.42c-0.83,0-1.5,0.67-1.5,1.5v1.28c0,0.24,0.06,0.48,0.17,0.7c0.11,0.21,2.51,4.63,7.9,5.42
						c-0.32,1.17-1.19,2.9-3.49,4.2l-0.29-1.2c-0.1-0.43-0.4-0.8-0.8-0.99c-3.15-1.54-5.3-4.05-6.26-5.88l-0.56-1.06v-7.3h7.42
						c0.83,0,1.5-0.67,1.5-1.5v-5.49c0-0.49-0.24-0.95-0.64-1.23c-0.4-0.28-0.92-0.35-1.37-0.18c-4.1,1.51-10.79,4.22-17.02,6.91
						l-4.02,1.73l-5.66-10.25L195.65,96.86z M274.46,113.06h-4.64v-1.83C271.21,111.76,272.78,112.38,274.46,113.06z M203.71,113.06
						c1.68-0.68,3.25-1.3,4.64-1.83v1.83H203.71z"/>
					<path d="M219.85,145.16c6.1,1.79,12.55,2.76,19.24,2.76c6.68,0,13.13-0.98,19.24-2.76H219.85z"/>
					<path d="M284.17,120.72c-0.46-0.2-0.99-0.15-1.42,0.12c-0.42,0.28-0.67,0.75-0.67,1.25v2.83l-1.29,2.45
						c-1.6,3.03-4.5,5.98-7.74,7.88c-0.46,0.27-0.74,0.76-0.74,1.29v2.76c1.02-0.57,2.01-1.16,3-1.77v-0.15
						c3.44-2.19,6.38-5.29,8.13-8.61l1.47-2.77c0.11-0.22,0.17-0.46,0.17-0.7v-0.92l4.06,1.75c0.72-0.77,1.42-1.56,2.1-2.36
						L284.17,120.72z"/>
					<path d="M221.7,122.38h34.44c0.83,0,1.5-0.67,1.5-1.5v-19.17c0-0.83-0.67-1.5-1.5-1.5H221.7c-0.83,0-1.5,0.67-1.5,1.5v19.17
						C220.2,121.71,220.87,122.38,221.7,122.38z M223.2,103.21h31.45v16.18H223.2V103.21z"/>
					<path d="M240.14,61.92h-2.65c-0.83,0-1.5,0.67-1.5,1.5v20.3c0,0.83,0.67,1.5,1.5,1.5h2.65c0.83,0,1.5-0.67,1.5-1.5v-20.3
						C241.64,62.59,240.97,61.92,240.14,61.92z"/>
					<path d="M242.78,131.73h-7.4c-0.66,0-1.24,0.43-1.43,1.06c-0.19,0.63,0.05,1.31,0.59,1.68l3.7,2.51
						c0.25,0.17,0.55,0.26,0.84,0.26c0.29,0,0.59-0.09,0.84-0.26l3.7-2.51c0.54-0.37,0.78-1.05,0.59-1.68
						C244.02,132.16,243.44,131.73,242.78,131.73z"/>
					<path d="M231.16,91.54h15.31c0.83,0,1.5-0.67,1.5-1.5V57.09c0-0.83-0.67-1.5-1.5-1.5h-15.31c-0.83,0-1.5,0.67-1.5,1.5v32.95
						C229.66,90.87,230.33,91.54,231.16,91.54z M232.66,58.59h12.31v29.96h-12.31V58.59z"/>
				</g>
			</g>
		</g>
	</g>
</g>
</svg>
